<svg xmlns="http://www.w3.org/2000/svg" width="737" height="78" viewBox="0 0 737 78" fill="none">
<rect x="408" y="21" width="282" height="2" fill="#EEEEEE"/>
<rect x="86" y="21" width="220" height="2" fill="#444444"/>
<rect x="306" y="21" width="58" height="2" fill="#E0E83D"/>
<rect x="408" y="21" width="58" height="2" fill="#E0E83D"/>
<g clip-path="url(#clip0_135_808)">
<g clip-path="url(#clip1_135_808)">
<circle cx="64" cy="22" r="22" fill="#444444"/>
</g>
<path d="M69.599 17L68.8985 17.7021C68.6754 17.9257 67.039 19.6071 65.3495 21.3418C63.9554 22.7732 62.9456 23.8075 62.429 24.3361L59.0088 21.5947L58.2362 20.9752L57 22.524L57.7726 23.1435L61.8933 26.4476L62.5835 27L63.2119 26.3702C63.435 26.1466 65.0714 24.4652 66.7609 22.7305C68.4503 20.9959 70.1929 19.208 70.2995 19.1012L71 18.4042L69.599 17Z" fill="white"/>
</g>
<g clip-path="url(#clip2_135_808)">
<g clip-path="url(#clip3_135_808)">
<circle cx="225" cy="22" r="22" fill="#444444"/>
</g>
<path d="M230.599 17L229.898 17.7021C229.675 17.9257 228.039 19.6071 226.35 21.3418C224.955 22.7732 223.946 23.8075 223.429 24.3361L220.009 21.5947L219.236 20.9752L218 22.524L218.773 23.1435L222.893 26.4476L223.584 27L224.212 26.3702C224.435 26.1466 226.071 24.4652 227.761 22.7305C229.45 20.9959 231.193 19.208 231.299 19.1012L232 18.4042L230.599 17Z" fill="white"/>
</g>
<g clip-path="url(#clip4_135_808)">
<circle cx="547" cy="22" r="22" fill="#EEEEEE"/>
<path d="M550.92 24.592H549.784V17.2H548.296L543 24.784V26.096H548.248V28H549.784V26.096H550.92V24.592ZM544.696 24.592L548.184 19.584H548.248V24.592H544.696Z" fill="#444444"/>
</g>
<path fill-rule="evenodd" clip-rule="evenodd" d="M386 44C398.15 44 408 34.1503 408 22C408 9.84974 398.15 0 386 0C373.85 0 364 9.84974 364 22C364 34.1503 373.85 44 386 44ZM386 41.3333C396.678 41.3333 405.333 32.6775 405.333 22C405.333 11.3225 396.678 2.66667 386 2.66667C375.322 2.66667 366.667 11.3225 366.667 22C366.667 32.6775 375.322 41.3333 386 41.3333Z" fill="#E0E83D"/>
<circle cx="386" cy="22.0002" r="16.6667" fill="#E0E83D"/>
<path d="M385.867 16.96C383.835 16.96 382.523 18.112 382.459 19.952H384.027C384.059 18.976 384.715 18.432 385.835 18.432C386.939 18.432 387.547 18.992 387.547 20C387.547 21.088 386.811 21.648 385.371 21.648H384.859V23.056H385.371C387.163 23.024 387.915 23.568 387.915 24.896C387.915 26.128 387.259 26.768 385.995 26.768C384.779 26.768 384.011 26.16 383.931 25.104H382.363C382.427 27.072 383.771 28.24 385.995 28.24C388.219 28.24 389.563 27.008 389.563 24.992C389.563 23.408 388.731 22.432 387.243 22.256V22.224C388.459 21.936 389.179 20.992 389.179 19.728C389.179 18.064 387.867 16.96 385.867 16.96Z" fill="#444444"/>
<g clip-path="url(#clip5_135_808)">
<circle cx="708" cy="22" r="22" fill="#EEEEEE"/>
<path d="M708.493 20.896C707.677 20.896 706.877 21.168 706.397 21.6H706.365L706.669 18.704H710.925V17.2H705.405L704.845 23.12H706.237C706.605 22.576 707.325 22.24 708.093 22.24C709.357 22.24 710.157 23.088 710.157 24.448C710.157 25.888 709.357 26.768 708.029 26.768C706.925 26.768 706.173 26.288 705.613 25.184L704.285 26C704.925 27.44 706.253 28.24 708.029 28.24C710.365 28.24 711.789 26.784 711.789 24.416C711.789 22.288 710.493 20.896 708.493 20.896Z" fill="#444444"/>
</g>
<path d="M687.405 70H689.229L684.653 58.8H683.117L678.541 70H680.365L681.437 67.216H686.333L687.405 70ZM682.029 65.68L683.885 60.88L685.741 65.68H682.029ZM690.265 73.2H691.833V68.912H691.865C692.329 69.712 693.145 70.24 694.361 70.24C696.313 70.24 697.961 68.768 697.961 66.304C697.961 63.84 696.313 62.368 694.361 62.368C693.145 62.368 692.329 62.896 691.865 63.696H691.833V62.608H690.265V73.2ZM694.025 68.704C692.649 68.704 691.753 67.712 691.753 66.304C691.753 64.896 692.649 63.904 694.025 63.904C695.401 63.904 696.297 64.896 696.297 66.304C696.297 67.712 695.401 68.704 694.025 68.704ZM699.405 73.2H700.973V68.912H701.005C701.469 69.712 702.285 70.24 703.501 70.24C705.453 70.24 707.101 68.768 707.101 66.304C707.101 63.84 705.453 62.368 703.501 62.368C702.285 62.368 701.469 62.896 701.005 63.696H700.973V62.608H699.405V73.2ZM703.165 68.704C701.789 68.704 700.893 67.712 700.893 66.304C700.893 64.896 701.789 63.904 703.165 63.904C704.541 63.904 705.437 64.896 705.437 66.304C705.437 67.712 704.541 68.704 703.165 68.704ZM712.706 62.384H712.594C711.346 62.384 710.498 63.12 710.146 64.224H710.114V62.608H708.546V70H710.114V66.72C710.114 64.96 710.93 64.224 712.466 64.224H712.706V62.384ZM716.989 62.368C714.669 62.368 712.941 64.032 712.941 66.304C712.941 68.576 714.669 70.24 716.989 70.24C719.309 70.24 721.037 68.576 721.037 66.304C721.037 64.032 719.309 62.368 716.989 62.368ZM716.989 63.904C718.397 63.904 719.373 64.848 719.373 66.304C719.373 67.76 718.397 68.704 716.989 68.704C715.581 68.704 714.605 67.76 714.605 66.304C714.605 64.848 715.581 63.904 716.989 63.904ZM726.765 62.608L724.893 68.128L723.037 62.608H721.197L724.157 70H725.629L728.605 62.608H726.765ZM732.529 62.368C730.161 62.368 728.753 64.08 728.753 66.32C728.753 68.656 730.257 70.24 732.609 70.24C734.433 70.24 735.409 69.232 735.953 68.48L734.849 67.44C734.481 67.936 733.793 68.736 732.577 68.736C731.313 68.736 730.401 67.872 730.337 66.56H736.065V66.304C736.065 63.92 734.785 62.368 732.529 62.368ZM732.433 63.808C733.553 63.808 734.305 64.4 734.369 65.424H730.417C730.609 64.352 731.377 63.808 732.433 63.808Z" fill="#444444"/>
<path d="M518.574 58.56C516.606 58.56 515.438 59.616 515.438 61.264C515.438 62.416 516.014 63.232 516.974 63.984L518.878 65.488C519.678 66.112 520.062 66.576 520.062 67.2C520.062 67.952 519.486 68.544 518.286 68.544C517.198 68.544 516.126 68.048 515.406 67.632L514.654 69.2C515.534 69.76 516.846 70.24 518.27 70.24C520.398 70.24 521.854 69.152 521.854 67.104C521.854 65.824 521.278 64.944 520.126 64.064L518.126 62.528C517.534 62.064 517.246 61.712 517.246 61.2C517.246 60.608 517.63 60.24 518.526 60.24C519.278 60.24 520.11 60.512 520.782 60.896L521.534 59.312C520.75 58.912 519.71 58.56 518.574 58.56ZM525.998 70.24C527.198 70.24 527.902 69.616 528.27 68.88H528.302V70H529.87V62.608H528.302V66.144C528.302 68.016 527.534 68.72 526.446 68.72C525.502 68.72 524.894 68.144 524.894 66.928V62.608H523.294V67.088C523.294 69.36 524.542 70.24 525.998 70.24ZM531.796 70H533.364V66.176C533.364 64.56 534.068 63.936 535.012 63.936C535.972 63.936 536.484 64.48 536.484 65.504V70H538.052V66.16C538.052 64.56 538.756 63.936 539.716 63.936C540.66 63.936 541.172 64.48 541.172 65.504V70H542.74V65.424C542.74 63.232 541.604 62.368 540.212 62.368C539.284 62.368 538.34 62.816 537.892 63.872H537.86C537.428 62.832 536.676 62.368 535.62 62.368C534.676 62.368 533.828 62.768 533.396 63.76H533.364V62.608H531.796V70ZM544.577 70H546.145V66.176C546.145 64.56 546.849 63.936 547.793 63.936C548.753 63.936 549.265 64.48 549.265 65.504V70H550.833V66.16C550.833 64.56 551.537 63.936 552.497 63.936C553.441 63.936 553.953 64.48 553.953 65.504V70H555.521V65.424C555.521 63.232 554.385 62.368 552.993 62.368C552.065 62.368 551.121 62.816 550.673 63.872H550.641C550.209 62.832 549.457 62.368 548.401 62.368C547.457 62.368 546.609 62.768 546.177 63.76H546.145V62.608H544.577V70ZM560.478 70.24C561.694 70.24 562.51 69.712 562.974 68.912H563.006V70H564.574V62.608H563.006V63.696H562.974C562.51 62.896 561.694 62.368 560.478 62.368C558.526 62.368 556.878 63.84 556.878 66.304C556.878 68.768 558.526 70.24 560.478 70.24ZM560.814 68.704C559.438 68.704 558.542 67.712 558.542 66.304C558.542 64.896 559.438 63.904 560.814 63.904C562.19 63.904 563.086 64.896 563.086 66.304C563.086 67.712 562.19 68.704 560.814 68.704ZM570.659 62.384H570.547C569.299 62.384 568.451 63.12 568.099 64.224H568.067V62.608H566.499V70H568.067V66.72C568.067 64.96 568.883 64.224 570.419 64.224H570.659V62.384ZM576.772 62.608L574.804 67.456L572.772 62.608H570.9L574.004 69.328L572.228 73.2H573.892L578.5 62.608H576.772Z" fill="#444444"/>
<line x1="344" y1="77" x2="426" y2="77" stroke="#E0E83D" stroke-width="2"/>
<path d="M353.046 70H354.87L350.294 58.8H348.758L344.182 70H346.006L347.078 67.216H351.974L353.046 70ZM347.67 65.68L349.526 60.88L351.382 65.68H347.67ZM363.955 62.608L362.467 67.936L360.755 62.608H359.235L357.523 67.936L356.035 62.608H354.307L356.787 70H358.227L360.003 64.704L361.763 70H363.203L365.683 62.608H363.955ZM369.432 70.24C370.648 70.24 371.464 69.712 371.928 68.912H371.96V70H373.528V62.608H371.96V63.696H371.928C371.464 62.896 370.648 62.368 369.432 62.368C367.48 62.368 365.832 63.84 365.832 66.304C365.832 68.768 367.48 70.24 369.432 70.24ZM369.768 68.704C368.392 68.704 367.496 67.712 367.496 66.304C367.496 64.896 368.392 63.904 369.768 63.904C371.144 63.904 372.04 64.896 372.04 66.304C372.04 67.712 371.144 68.704 369.768 68.704ZM379.612 62.384H379.5C378.252 62.384 377.404 63.12 377.052 64.224H377.02V62.608H375.452V70H377.02V66.72C377.02 64.96 377.836 64.224 379.372 64.224H379.612V62.384ZM383.447 70.24C384.663 70.24 385.479 69.712 385.943 68.912H385.975V70H387.543V58.8H385.975V63.696H385.943C385.479 62.896 384.663 62.368 383.447 62.368C381.495 62.368 379.847 63.84 379.847 66.304C379.847 68.768 381.495 70.24 383.447 70.24ZM383.783 68.704C382.407 68.704 381.511 67.712 381.511 66.304C381.511 64.896 382.407 63.904 383.783 63.904C385.159 63.904 386.055 64.896 386.055 66.304C386.055 67.712 385.159 68.704 383.783 68.704ZM397.963 58.8H394.347V70H397.963C401.179 70 403.595 67.888 403.595 64.4C403.595 60.912 401.179 58.8 397.963 58.8ZM397.947 60.368C400.139 60.368 401.771 61.76 401.771 64.4C401.771 67.04 400.139 68.432 397.947 68.432H396.011V60.368H397.947ZM408.072 70.24C409.288 70.24 410.104 69.712 410.568 68.912H410.6V70H412.168V62.608H410.6V63.696H410.568C410.104 62.896 409.288 62.368 408.072 62.368C406.12 62.368 404.472 63.84 404.472 66.304C404.472 68.768 406.12 70.24 408.072 70.24ZM408.408 68.704C407.032 68.704 406.136 67.712 406.136 66.304C406.136 64.896 407.032 63.904 408.408 63.904C409.784 63.904 410.68 64.896 410.68 66.304C410.68 67.712 409.784 68.704 408.408 68.704ZM417.757 63.936V62.608H416.253V59.648H414.685V62.608H413.373V63.936H414.685V68.112C414.685 69.328 415.389 70.016 416.685 70.016H417.405V68.576H417.021C416.477 68.576 416.253 68.336 416.253 67.808V63.936H417.757ZM421.838 70.24C423.054 70.24 423.87 69.712 424.334 68.912H424.366V70H425.934V62.608H424.366V63.696H424.334C423.87 62.896 423.054 62.368 421.838 62.368C419.886 62.368 418.238 63.84 418.238 66.304C418.238 68.768 419.886 70.24 421.838 70.24ZM422.174 68.704C420.798 68.704 419.902 67.712 419.902 66.304C419.902 64.896 420.798 63.904 422.174 63.904C423.55 63.904 424.446 64.896 424.446 66.304C424.446 67.712 423.55 68.704 422.174 68.704Z" fill="#444444"/>
<path d="M173.062 58.8H171.702L168.998 65.68H168.966L166.262 58.8H164.902L162.182 70H163.958L165.814 62H165.846L168.358 68.288H169.606L172.118 62H172.15L174.006 70H175.782L173.062 58.8ZM180.027 58.56C178.059 58.56 176.891 59.616 176.891 61.264C176.891 62.416 177.467 63.232 178.427 63.984L180.331 65.488C181.131 66.112 181.515 66.576 181.515 67.2C181.515 67.952 180.939 68.544 179.739 68.544C178.651 68.544 177.579 68.048 176.859 67.632L176.107 69.2C176.987 69.76 178.299 70.24 179.723 70.24C181.851 70.24 183.307 69.152 183.307 67.104C183.307 65.824 182.731 64.944 181.579 64.064L179.579 62.528C178.987 62.064 178.699 61.712 178.699 61.2C178.699 60.608 179.083 60.24 179.979 60.24C180.731 60.24 181.563 60.512 182.235 60.896L182.987 59.312C182.203 58.912 181.163 58.56 180.027 58.56ZM194.827 58.8H193.467L190.763 65.68H190.731L188.027 58.8H186.667L183.947 70H185.723L187.579 62H187.611L190.123 68.288H191.371L193.883 62H193.915L195.771 70H197.547L194.827 58.8ZM200.417 68.432V64.592H204.785V63.024H200.417V60.368H205.153V58.8H198.753V70H205.233V68.432H200.417ZM215.322 58.8H211.706V70H215.322C218.538 70 220.954 67.888 220.954 64.4C220.954 60.912 218.538 58.8 215.322 58.8ZM215.306 60.368C217.498 60.368 219.13 61.76 219.13 64.4C219.13 67.04 217.498 68.432 215.306 68.432H213.37V60.368H215.306ZM225.88 62.368C223.56 62.368 221.832 64.032 221.832 66.304C221.832 68.576 223.56 70.24 225.88 70.24C228.2 70.24 229.928 68.576 229.928 66.304C229.928 64.032 228.2 62.368 225.88 62.368ZM225.88 63.904C227.288 63.904 228.264 64.848 228.264 66.304C228.264 67.76 227.288 68.704 225.88 68.704C224.472 68.704 223.496 67.76 223.496 66.304C223.496 64.848 224.472 63.904 225.88 63.904ZM234.958 70.24C235.918 70.24 236.734 69.984 237.486 69.488L236.75 68.16C236.238 68.48 235.598 68.72 234.91 68.72C233.486 68.72 232.558 67.696 232.558 66.304C232.558 64.912 233.486 63.888 234.91 63.888C235.598 63.888 236.238 64.128 236.75 64.448L237.486 63.12C236.734 62.624 235.918 62.368 234.958 62.368C232.574 62.368 230.894 63.952 230.894 66.304C230.894 68.656 232.574 70.24 234.958 70.24ZM241.389 70.24C242.589 70.24 243.293 69.616 243.661 68.88H243.693V70H245.261V62.608H243.693V66.144C243.693 68.016 242.925 68.72 241.837 68.72C240.893 68.72 240.285 68.144 240.285 66.928V62.608H238.685V67.088C238.685 69.36 239.933 70.24 241.389 70.24ZM247.187 70H248.755V66.176C248.755 64.56 249.459 63.936 250.403 63.936C251.363 63.936 251.875 64.48 251.875 65.504V70H253.443V66.16C253.443 64.56 254.147 63.936 255.107 63.936C256.051 63.936 256.563 64.48 256.563 65.504V70H258.131V65.424C258.131 63.232 256.995 62.368 255.603 62.368C254.675 62.368 253.731 62.816 253.283 63.872H253.251C252.819 62.832 252.067 62.368 251.011 62.368C250.067 62.368 249.219 62.768 248.787 63.76H248.755V62.608H247.187V70ZM263.264 62.368C260.896 62.368 259.488 64.08 259.488 66.32C259.488 68.656 260.992 70.24 263.344 70.24C265.168 70.24 266.144 69.232 266.688 68.48L265.584 67.44C265.216 67.936 264.528 68.736 263.312 68.736C262.048 68.736 261.136 67.872 261.072 66.56H266.8V66.304C266.8 63.92 265.52 62.368 263.264 62.368ZM263.168 63.808C264.288 63.808 265.04 64.4 265.104 65.424H261.152C261.344 64.352 262.112 63.808 263.168 63.808ZM272.249 62.368C271.113 62.368 270.313 62.88 269.833 63.728H269.801V62.608H268.233V70H269.801V66.464C269.801 64.624 270.617 63.936 271.769 63.936C272.825 63.936 273.465 64.464 273.465 65.728V70H275.033V65.456C275.033 63.216 273.833 62.368 272.249 62.368ZM280.132 63.936V62.608H278.628V59.648H277.06V62.608H275.748V63.936H277.06V68.112C277.06 69.328 277.764 70.016 279.06 70.016H279.78V68.576H279.396C278.852 68.576 278.628 68.336 278.628 67.808V63.936H280.132ZM283.693 70.24C285.421 70.24 286.573 69.504 286.573 68C286.573 67.008 286.061 66.368 285.101 65.92L283.725 65.264C283.085 64.96 282.877 64.736 282.877 64.384C282.877 64.048 283.101 63.824 283.789 63.824C284.509 63.824 285.197 64.064 285.757 64.304L286.397 62.944C285.613 62.592 284.685 62.368 283.837 62.368C282.221 62.368 281.213 63.104 281.213 64.464C281.213 65.312 281.645 66.064 282.765 66.592L284.109 67.248C284.733 67.552 284.893 67.776 284.893 68.08C284.893 68.544 284.493 68.768 283.741 68.768C282.861 68.768 282.077 68.464 281.389 68.064L280.685 69.456C281.533 69.952 282.637 70.24 283.693 70.24Z" fill="#323232"/>
<path d="M11.1163 58.8H9.75625L7.05225 65.68H7.02025L4.31625 58.8H2.95625L0.23625 70H2.01225L3.86825 62H3.90025L6.41225 68.288H7.66025L10.1723 62H10.2043L12.0603 70H13.8363L11.1163 58.8ZM18.0819 58.56C16.1139 58.56 14.9459 59.616 14.9459 61.264C14.9459 62.416 15.5219 63.232 16.4819 63.984L18.3859 65.488C19.1859 66.112 19.5699 66.576 19.5699 67.2C19.5699 67.952 18.9939 68.544 17.7939 68.544C16.7059 68.544 15.6339 68.048 14.9139 67.632L14.1619 69.2C15.0419 69.76 16.3539 70.24 17.7779 70.24C19.9059 70.24 21.3619 69.152 21.3619 67.104C21.3619 65.824 20.7859 64.944 19.6339 64.064L17.6339 62.528C17.0419 62.064 16.7539 61.712 16.7539 61.2C16.7539 60.608 17.1379 60.24 18.0339 60.24C18.7859 60.24 19.6179 60.512 20.2899 60.896L21.0419 59.312C20.2579 58.912 19.2179 58.56 18.0819 58.56ZM32.8819 58.8H31.5219L28.8179 65.68H28.7859L26.0819 58.8H24.7219L22.0019 70H23.7779L25.6339 62H25.6659L28.1779 68.288H29.4259L31.9379 62H31.9699L33.8259 70H35.6019L32.8819 58.8ZM38.4715 68.432V64.592H42.8395V63.024H38.4715V60.368H43.2075V58.8H36.8075V70H43.2875V68.432H38.4715ZM51.4566 58.8H49.7606V70H51.4566V58.8ZM57.5541 62.368C56.4181 62.368 55.6181 62.88 55.1381 63.728H55.1061V62.608H53.5381V70H55.1061V66.464C55.1061 64.624 55.9221 63.936 57.0741 63.936C58.1301 63.936 58.7701 64.464 58.7701 65.728V70H60.3381V65.456C60.3381 63.216 59.1381 62.368 57.5541 62.368ZM65.3063 60.096H65.5463V58.64H65.2423C63.4183 58.64 62.3943 59.76 62.3943 61.584V62.608H61.2263V63.936H62.3943V70H63.9623V63.936H65.4183V62.608H63.9623V61.536C63.9623 60.464 64.5543 60.096 65.3063 60.096ZM69.8249 62.368C67.5049 62.368 65.7769 64.032 65.7769 66.304C65.7769 68.576 67.5049 70.24 69.8249 70.24C72.1449 70.24 73.8729 68.576 73.8729 66.304C73.8729 64.032 72.1449 62.368 69.8249 62.368ZM69.8249 63.904C71.2329 63.904 72.2089 64.848 72.2089 66.304C72.2089 67.76 71.2329 68.704 69.8249 68.704C68.4169 68.704 67.4409 67.76 67.4409 66.304C67.4409 64.848 68.4169 63.904 69.8249 63.904ZM79.4794 62.384H79.3674C78.1194 62.384 77.2714 63.12 76.9194 64.224H76.8874V62.608H75.3194V70H76.8874V66.72C76.8874 64.96 77.7034 64.224 79.2394 64.224H79.4794V62.384ZM80.6006 70H82.1686V66.176C82.1686 64.56 82.8726 63.936 83.8166 63.936C84.7766 63.936 85.2886 64.48 85.2886 65.504V70H86.8566V66.16C86.8566 64.56 87.5606 63.936 88.5206 63.936C89.4646 63.936 89.9766 64.48 89.9766 65.504V70H91.5446V65.424C91.5446 63.232 90.4086 62.368 89.0166 62.368C88.0886 62.368 87.1446 62.816 86.6966 63.872H86.6646C86.2326 62.832 85.4806 62.368 84.4246 62.368C83.4806 62.368 82.6326 62.768 82.2006 63.76H82.1686V62.608H80.6006V70ZM96.5019 70.24C97.7179 70.24 98.5339 69.712 98.9979 68.912H99.0299V70H100.598V62.608H99.0299V63.696H98.9979C98.5339 62.896 97.7179 62.368 96.5019 62.368C94.5499 62.368 92.9019 63.84 92.9019 66.304C92.9019 68.768 94.5499 70.24 96.5019 70.24ZM96.8379 68.704C95.4619 68.704 94.5659 67.712 94.5659 66.304C94.5659 64.896 95.4619 63.904 96.8379 63.904C98.2139 63.904 99.1099 64.896 99.1099 66.304C99.1099 67.712 98.2139 68.704 96.8379 68.704ZM106.187 63.936V62.608H104.683V59.648H103.115V62.608H101.803V63.936H103.115V68.112C103.115 69.328 103.819 70.016 105.115 70.016H105.835V68.576H105.451C104.907 68.576 104.683 68.336 104.683 67.808V63.936H106.187ZM109.284 58.96H107.364V60.88H109.284V58.96ZM107.54 70H109.108V62.608H107.54V70ZM114.669 62.368C112.349 62.368 110.621 64.032 110.621 66.304C110.621 68.576 112.349 70.24 114.669 70.24C116.989 70.24 118.717 68.576 118.717 66.304C118.717 64.032 116.989 62.368 114.669 62.368ZM114.669 63.904C116.077 63.904 117.053 64.848 117.053 66.304C117.053 67.76 116.077 68.704 114.669 68.704C113.261 68.704 112.285 67.76 112.285 66.304C112.285 64.848 113.261 63.904 114.669 63.904ZM124.179 62.368C123.043 62.368 122.243 62.88 121.763 63.728H121.731V62.608H120.163V70H121.731V66.464C121.731 64.624 122.547 63.936 123.699 63.936C124.755 63.936 125.395 64.464 125.395 65.728V70H126.963V65.456C126.963 63.216 125.763 62.368 124.179 62.368Z" fill="#323232"/>
<defs>
<clipPath id="clip0_135_808">
<rect width="44" height="44" fill="white" transform="translate(42)"/>
</clipPath>
<clipPath id="clip1_135_808">
<rect width="44" height="44" fill="white" transform="translate(42)"/>
</clipPath>
<clipPath id="clip2_135_808">
<rect width="44" height="44" fill="white" transform="translate(203)"/>
</clipPath>
<clipPath id="clip3_135_808">
<rect width="44" height="44" fill="white" transform="translate(203)"/>
</clipPath>
<clipPath id="clip4_135_808">
<rect width="44" height="44" fill="white" transform="translate(525)"/>
</clipPath>
<clipPath id="clip5_135_808">
<rect width="44" height="44" fill="white" transform="translate(686)"/>
</clipPath>
</defs>
</svg>