<svg version="1.1" id="Capa_1" xmlns="http://www.w3.org/2000/svg" x="0" y="0" viewBox="0 0 163 32" style="enable-background:new 0 0 163 32" xml:space="preserve"><style>.st0{fill-rule:evenodd;clip-rule:evenodd;fill:#000000}</style><path class="st0" d="M16.9 25.7c0 .5-.4.9-.9.9s-.9-.4-.9-.9c0-5-4.1-9-9.1-9-.5 0-.9-.4-.9-.9s.4-.9.9-.9c5 0 9.1-4.1 9.1-9 0-.5.4-.9.9-.9s.9.4.9.9c0 5 4.1 9 9.1 9h5.7C31.3 6.6 24.4 0 15.9 0 7.1 0 0 7.1 0 15.8c0 8.7 7.1 15.8 15.9 15.8 8.5 0 15.4-6.6 15.9-14.8h-5.7c-5.1-.1-9.2 3.9-9.2 8.9zM127.5 10.3c0-1.4-.4-2.5-1.2-3.1-.8-.7-2-1-3.5-1h-1.2v9h1.2c1.5 0 2.7-.4 3.5-1.2.8-.8 1.2-2 1.2-3.7zm10.6 15.9h-8.3c-.2 0-.3-.1-.4-.2-1.4-2.1-2.5-3.7-3.5-5-1-1.3-2.1-2.8-3.6-4.5h-.8V23c0 .4.1.7.2.9.1.3.4.5.8.6.2.1.5.2.9.2l.7.1c.2 0 .4.3.4.5v.7h-12.3v-.7c0-.3.2-.5.5-.5l1.3-.1c.5-.1.8-.1 1-.2.4-.2.7-.4.8-.6.1-.2.2-.6.2-.9V8c0-.4-.1-.7-.2-.9-.1-.2-.4-.5-.8-.6-.3-.1-.7-.2-1.2-.3l-.5-.2c-.2 0-.4-.3-.4-.5v-.7h12.2c2.7 0 4.8.4 6.2 1.3 1.4.8 2.1 2.1 2.1 3.8 0 1.5-.4 2.7-1.3 3.6-.9.9-2.2 1.6-4 2.1.7.9 1.5 1.9 2.4 3.1.9 1.2 1.9 2.4 2.9 3.6.3.4.8.9 1.3 1.4.5.6 1.2.9 1.6 1.1.2.1.7.1 1.1.2h.1c.3 0 .5.3.5.5v.7zM65.9 20.2c-1 1.6-2.1 2.7-3.3 3.5-1.2.8-2.3 1.3-3.9 1.3-1.1 0-2-.2-2.8-.6-.9-.4-1.7-1-2.4-1.8-.5-.6-.9-1.3-1.2-2.1-.3-.8-.5-1.6-1-2.2-.4-.6-1-1.1-1.7-1.5-.4-.2-.8-.4-1.3-.5-.4-.1-.8-.1-1.3-.1-.3 0-.5-.2-.6-.4-.1-.4.2-.7.6-.7h.1c1.2 0 2.3-.5 3.2-1.2 1.8-1.5 1.6-3.8 2.7-5.6.9-1.4 2.7-2.5 4.7-2.5 1.7 0 3.1.6 4.2 1.7s2.1 2.7 2.9 5c.1.2.3.3.5.3h1.1V4.9H65c-.1 0-.2 0-.3.1l-1 .9c-.4-.2-1.5-1-3.2-1.6-2-.6-3.9-.7-5.6-.4-3.1.5-6.3 2.5-8.1 5.1-1.4 2.1-2 4.1-2 6.9 0 4.4 2.7 7.3 3.6 8.2.9.9 2.6 2.1 4.2 2.6 1.5.5 3 .7 4.7.7 1.4 0 2.7-.4 3.7-.7 3.9-1.4 5.7-4.4 6.1-5.1.1-.2.1-.5-.2-.7l-1-.7zM87.1 20.9c.2-.6.3-1 .3-1 0-.3-.2-.5-.5-.5h-1.1c-.3.8-1.6 3.9-2.1 4.4-.5.5-1.2.7-1.8.8-.8.2-1.6.3-2.5.3-.7 0-1.6 0-2.2-.5-.3-.2-.4-.5-.5-.8-.1-.4-.1-.9-.1-1.6V7.9c0-.4.1-.7.2-.9.1-.3.4-.5.8-.6.3-.1.7-.2 1.2-.2l.6-.2c.3 0 .4-.2.4-.5v-.7H67.9v.8c0 .2.1.4.4.4l.7.1c.4.1.8.2 1.1.3.4.2.7.4.8.6.1.4.2.7.2 1v15.2c0 .4-.1.7-.2 1-.1.3-.4.4-.8.6-.2.1-.5.1-1 .2-.3 0-.6.1-.8.1-.3 0-.4.2-.4.5v.7h17.3l1.9-5.4z"/><path class="st0" d="m95.1 17.7 3.1-7.7 3.1 7.7h-6.2zm17.1 7.3-.4-.1c-.4-.1-.7-.2-1-.4-.4-.2-.7-.4-.9-.7-.2-.2-.4-.5-.5-.8-.8-1.8-1.8-4.1-2.9-6.9-.8-2-3.2-7.7-4.2-10.2.2-.1.4-.2.4-.5v-.6H98.8c-1.4 3.4-2.8 6.5-3.9 9.3l-3.6 8.4c-.2.5-.4.9-.7 1.2-.3.3-.6.6-1.1.9-.2.1-.6.3-1 .4l-.7.1c-.2 0-.4.3-.4.5v.7h8.9v-.7c0-.3-.2-.5-.4-.5-.9-.1-1.6-.2-2-.4-.5-.2-.7-.5-.7-.8 0-.1 0-.3.1-.5 0-.2.2-.7.3-1.2.2-.4.3-.9.5-1.5.2-.5.4-1 .6-1.4h7.5l1.9 4.4c.1.2.1.3.1.4v.3c0 .2-.4.4-1.1.6-.6.1-1.1.2-1.5.2-.3 0-.4.2-.4.5v.7h11.6v-.7c-.2-.4-.4-.6-.6-.7zM145.5 17.7l3.1-7.7 3.1 7.7h-6.2zm17.1 7.3-.4-.1c-.4-.1-.7-.2-1-.4-.4-.2-.7-.4-.9-.7-.2-.2-.4-.5-.5-.8-.8-1.8-1.8-4.1-2.9-6.9-.8-2-3.2-7.7-4.2-10.2.2-.1.4-.2.4-.5v-.6H149.2c-1.4 3.4-2.8 6.5-3.9 9.3s-2.4 5.6-3.6 8.4c-.2.5-.4.9-.7 1.2-.3.3-.6.6-1.1.9-.2.1-.6.3-1 .4l-.7.1c-.2 0-.4.3-.4.5v.7h8.9v-.7c0-.3-.2-.5-.4-.5-.9-.1-1.6-.2-2-.4-.5-.2-.7-.5-.7-.8 0-.1 0-.3.1-.5 0-.2.1-.7.3-1.2.2-.4.3-.9.5-1.5.2-.5.4-1 .6-1.4h7.5l1.9 4.4c.1.2.1.3.1.4v.3c0 .2-.4.4-1.1.6-.6.1-1.1.2-1.5.2-.3 0-.4.2-.4.5v.7H163v-.7c0-.4-.2-.6-.4-.7z"/></svg>