<svg width="24" height="24" viewBox="0 0 24 24" fill="none"
  xmlns="http://www.w3.org/2000/svg">
  <g clip-path="url(#clip0_375_2660)">
    <path d="M14.9234 4.00562L19.8059 8.91171L7.44791 21.3288L2.56829 16.4246L14.9234 4.00562ZM23.5103 2.82198L21.333 0.634256C21.133 0.433236 20.8952 0.273722 20.6333 0.164877C20.3714 0.0560318 20.0906 0 19.807 0C19.5234 0 19.2426 0.0560318 18.9808 0.164877C18.7189 0.273722 18.4811 0.433236 18.281 0.634256L16.1956 2.73011L21.0776 7.6362L23.5103 5.19159C23.8239 4.87702 24 4.45096 24 4.00679C24 3.56261 23.8239 3.13655 23.5103 2.82198ZM0.0136358 23.3206C-0.00715606 23.4128 -0.00412876 23.5088 0.0224325 23.5996C0.0489937 23.6903 0.0982144 23.7728 0.165458 23.8392C0.232701 23.9057 0.315753 23.9539 0.406789 23.9794C0.497825 24.0049 0.593849 24.0068 0.685814 23.9849L6.12605 22.6592L1.24643 17.7531L0.0136358 23.3206Z" fill="#444444"/>
  </g>
  <defs>
    <clipPath id="clip0_375_2660">
      <rect width="24" height="24" fill="white"/>
    </clipPath>
  </defs>
</svg>
