<svg width="783" height="80" viewBox="0 0 783 80" fill="none" xmlns="http://www.w3.org/2000/svg">
<path d="M2.0035 58.8V70H0.3075V58.8H2.0035ZM8.101 62.368C9.685 62.368 10.885 63.216 10.885 65.456V70H9.317V65.728C9.317 64.464 8.677 63.936 7.621 63.936C6.469 63.936 5.653 64.624 5.653 66.464V70H4.085V62.608H5.653V63.728H5.685C6.165 62.88 6.965 62.368 8.101 62.368ZM15.8531 60.096C15.1011 60.096 14.5091 60.464 14.5091 61.536V62.608H15.9651V63.936H14.5091V70H12.9411V63.936H11.7731V62.608H12.9411V61.584C12.9411 59.76 13.9651 58.64 15.7891 58.64H16.0931V60.096H15.8531ZM20.3718 62.368C22.6918 62.368 24.4198 64.032 24.4198 66.304C24.4198 68.576 22.6918 70.24 20.3718 70.24C18.0518 70.24 16.3238 68.576 16.3238 66.304C16.3238 64.032 18.0518 62.368 20.3718 62.368ZM20.3718 63.904C18.9638 63.904 17.9878 64.848 17.9878 66.304C17.9878 67.76 18.9638 68.704 20.3718 68.704C21.7798 68.704 22.7558 67.76 22.7558 66.304C22.7558 64.848 21.7798 63.904 20.3718 63.904ZM30.0263 62.384V64.224H29.7863C28.2503 64.224 27.4343 64.96 27.4343 66.72V70H25.8663V62.608H27.4343V64.224H27.4663C27.8183 63.12 28.6663 62.384 29.9143 62.384H30.0263ZM31.1475 70V62.608H32.7155V63.76H32.7475C33.1795 62.768 34.0275 62.368 34.9715 62.368C36.0275 62.368 36.7795 62.832 37.2115 63.872H37.2435C37.6915 62.816 38.6355 62.368 39.5635 62.368C40.9555 62.368 42.0915 63.232 42.0915 65.424V70H40.5235V65.504C40.5235 64.48 40.0115 63.936 39.0675 63.936C38.1075 63.936 37.4035 64.56 37.4035 66.16V70H35.8355V65.504C35.8355 64.48 35.3235 63.936 34.3635 63.936C33.4195 63.936 32.7155 64.56 32.7155 66.176V70H31.1475ZM47.0488 70.24C45.0968 70.24 43.4488 68.768 43.4488 66.304C43.4488 63.84 45.0968 62.368 47.0488 62.368C48.2648 62.368 49.0808 62.896 49.5448 63.696H49.5768V62.608H51.1448V70H49.5768V68.912H49.5448C49.0808 69.712 48.2648 70.24 47.0488 70.24ZM47.3848 68.704C48.7608 68.704 49.6568 67.712 49.6568 66.304C49.6568 64.896 48.7608 63.904 47.3848 63.904C46.0088 63.904 45.1128 64.896 45.1128 66.304C45.1128 67.712 46.0088 68.704 47.3848 68.704ZM56.6534 70.24C54.2694 70.24 52.5894 68.656 52.5894 66.304C52.5894 63.952 54.2694 62.368 56.6534 62.368C57.6134 62.368 58.4294 62.624 59.1814 63.12L58.4454 64.448C57.9334 64.128 57.2934 63.888 56.6054 63.888C55.1814 63.888 54.2534 64.912 54.2534 66.304C54.2534 67.696 55.1814 68.72 56.6054 68.72C57.2934 68.72 57.9334 68.48 58.4454 68.16L59.1814 69.488C58.4294 69.984 57.6134 70.24 56.6534 70.24ZM62.284 58.96V60.88H60.364V58.96H62.284ZM60.54 70V62.608H62.108V70H60.54ZM70.5966 58.688L68.2926 61.152H67.0606L68.5806 58.688H70.5966ZM67.6686 62.368C69.9886 62.368 71.7166 64.032 71.7166 66.304C71.7166 68.576 69.9886 70.24 67.6686 70.24C65.3486 70.24 63.6206 68.576 63.6206 66.304C63.6206 64.032 65.3486 62.368 67.6686 62.368ZM67.6686 63.904C66.2606 63.904 65.2846 64.848 65.2846 66.304C65.2846 67.76 66.2606 68.704 67.6686 68.704C69.0766 68.704 70.0526 67.76 70.0526 66.304C70.0526 64.848 69.0766 63.904 67.6686 63.904ZM77.1791 62.368C78.7631 62.368 79.9631 63.216 79.9631 65.456V70H78.3951V65.728C78.3951 64.464 77.7551 63.936 76.6991 63.936C75.5471 63.936 74.7311 64.624 74.7311 66.464V70H73.1631V62.608H74.7311V63.728H74.7631C75.2431 62.88 76.0431 62.368 77.1791 62.368ZM96.2881 58.8L99.0081 70H97.2321L95.3761 62H95.3441L92.8321 68.288H91.5841L89.0721 62H89.0401L87.1841 70H85.4081L88.1281 58.8H89.4881L92.1921 65.68H92.2241L94.9281 58.8H96.2881ZM101.91 58.8V70H100.214V58.8H101.91ZM107.975 58.8C110.199 58.8 111.447 60.256 111.447 62.192C111.447 64.112 110.199 65.584 107.975 65.584H105.815V70H104.151V58.8H107.975ZM107.751 64.016C108.903 64.016 109.655 63.392 109.655 62.192C109.655 60.992 108.903 60.368 107.751 60.368H105.815V64.016H107.751ZM120.376 58.8L116.872 65.504V70H115.192V65.52L111.688 58.8H113.624L116.008 63.744H116.056L118.44 58.8H120.376ZM130.694 58.8L133.414 70H131.638L129.782 62H129.75L127.238 68.288H125.99L123.478 62H123.446L121.59 70H119.814L122.534 58.8H123.894L126.598 65.68H126.63L129.334 58.8H130.694ZM136.284 68.432H141.1V70H134.62V58.8H141.02V60.368H136.284V63.024H140.652V64.592H136.284V68.432Z" fill="#323232"/>
<line x1="9.79135e-08" y1="79" x2="140" y2="79" stroke="#E0E83D" stroke-width="2"/>
<rect x="156" y="21" width="540" height="2" fill="#EEEEEE"/>
<rect x="92" y="21" width="64" height="2" fill="#E0E83D"/>
<path fill-rule="evenodd" clip-rule="evenodd" d="M70 44C82.1503 44 92 34.1503 92 22C92 9.84974 82.1503 0 70 0C57.8497 0 48 9.84974 48 22C48 34.1503 57.8497 44 70 44ZM70 41.3333C80.6775 41.3333 89.3333 32.6775 89.3333 22C89.3333 11.3225 80.6775 2.66667 70 2.66667C59.3225 2.66667 50.6667 11.3225 50.6667 22C50.6667 32.6775 59.3225 41.3333 70 41.3333Z" fill="#E0E83D"/>
<circle cx="70" cy="22" r="16.6667" fill="#E0E83D"/>
<path d="M70.9166 17.2H68.6766V18.768H69.3486V28H70.9166V17.2Z" fill="#444444"/>
<g clip-path="url(#clip0_0_1)">
<circle cx="231" cy="22" r="22" fill="#EEEEEE"/>
<path d="M227.496 28H234.248V26.496H229.784L232.536 23.44C233.784 22.048 234.264 21.088 234.264 19.968C234.264 18.096 233.032 16.96 231 16.96C228.904 16.96 227.576 18.208 227.528 20.208H229.096C229.128 19.104 229.832 18.432 230.936 18.432C231.976 18.432 232.632 19.056 232.632 20.048C232.632 20.784 232.264 21.456 231.224 22.624L227.496 26.848V28Z" fill="#444444"/>
</g>
<g clip-path="url(#clip1_0_1)">
<circle cx="553" cy="22" r="22" fill="#EEEEEE"/>
<path d="M556.92 24.592H555.784V17.2H554.296L549 24.784V26.096H554.248V28H555.784V26.096H556.92V24.592ZM550.696 24.592L554.184 19.584H554.248V24.592H550.696Z" fill="#444444"/>
</g>
<g clip-path="url(#clip2_0_1)">
<circle cx="392" cy="22" r="22" fill="#EEEEEE"/>
<path d="M391.867 16.96C389.835 16.96 388.523 18.112 388.459 19.952H390.027C390.059 18.976 390.715 18.432 391.835 18.432C392.939 18.432 393.547 18.992 393.547 20C393.547 21.088 392.811 21.648 391.371 21.648H390.859V23.056H391.371C393.163 23.024 393.915 23.568 393.915 24.896C393.915 26.128 393.259 26.768 391.995 26.768C390.779 26.768 390.011 26.16 389.931 25.104H388.363C388.427 27.072 389.771 28.24 391.995 28.24C394.219 28.24 395.563 27.008 395.563 24.992C395.563 23.408 394.731 22.432 393.243 22.256V22.224C394.459 21.936 395.179 20.992 395.179 19.728C395.179 18.064 393.867 16.96 391.867 16.96Z" fill="#444444"/>
</g>
<g clip-path="url(#clip3_0_1)">
<circle cx="714" cy="22" r="22" fill="#EEEEEE"/>
<path d="M714.493 20.896C713.677 20.896 712.877 21.168 712.397 21.6H712.365L712.669 18.704H716.925V17.2H711.405L710.845 23.12H712.237C712.605 22.576 713.325 22.24 714.093 22.24C715.357 22.24 716.157 23.088 716.157 24.448C716.157 25.888 715.357 26.768 714.029 26.768C712.925 26.768 712.173 26.288 711.613 25.184L710.285 26C710.925 27.44 712.253 28.24 714.029 28.24C716.365 28.24 717.789 26.784 717.789 24.416C717.789 22.288 716.493 20.896 714.493 20.896Z" fill="#444444"/>
</g>
<path d="M652.944 70L651.872 67.216H646.976L645.904 70H644.08L648.656 58.8H650.192L654.768 70H652.944ZM647.568 65.68H651.28L649.424 60.88L647.568 65.68ZM655.804 73.2V62.608H657.372V63.696H657.404C657.868 62.896 658.684 62.368 659.9 62.368C661.852 62.368 663.5 63.84 663.5 66.304C663.5 68.768 661.852 70.24 659.9 70.24C658.684 70.24 657.868 69.712 657.404 68.912H657.372V73.2H655.804ZM659.564 68.704C660.94 68.704 661.836 67.712 661.836 66.304C661.836 64.896 660.94 63.904 659.564 63.904C658.188 63.904 657.292 64.896 657.292 66.304C657.292 67.712 658.188 68.704 659.564 68.704ZM669.104 62.384V64.224H668.864C667.328 64.224 666.512 64.96 666.512 66.72V70H664.944V62.608H666.512V64.224H666.544C666.896 63.12 667.744 62.384 668.992 62.384H669.104ZM673.387 62.368C675.707 62.368 677.435 64.032 677.435 66.304C677.435 68.576 675.707 70.24 673.387 70.24C671.067 70.24 669.339 68.576 669.339 66.304C669.339 64.032 671.067 62.368 673.387 62.368ZM673.387 63.904C671.979 63.904 671.003 64.848 671.003 66.304C671.003 67.76 671.979 68.704 673.387 68.704C674.795 68.704 675.771 67.76 675.771 66.304C675.771 64.848 674.795 63.904 673.387 63.904ZM683.058 70.24C681.842 70.24 681.026 69.712 680.562 68.912H680.53V70H678.962V58.8H680.53V63.696H680.562C681.026 62.896 681.842 62.368 683.058 62.368C685.01 62.368 686.658 63.84 686.658 66.304C686.658 68.768 685.01 70.24 683.058 70.24ZM682.722 68.704C684.098 68.704 684.994 67.712 684.994 66.304C684.994 64.896 684.098 63.904 682.722 63.904C681.346 63.904 680.45 64.896 680.45 66.304C680.45 67.712 681.346 68.704 682.722 68.704ZM691.221 70.24C689.269 70.24 687.621 68.768 687.621 66.304C687.621 63.84 689.269 62.368 691.221 62.368C692.437 62.368 693.253 62.896 693.717 63.696H693.749V62.608H695.317V70H693.749V68.912H693.717C693.253 69.712 692.437 70.24 691.221 70.24ZM691.557 68.704C692.933 68.704 693.829 67.712 693.829 66.304C693.829 64.896 692.933 63.904 691.557 63.904C690.181 63.904 689.285 64.896 689.285 66.304C689.285 67.712 690.181 68.704 691.557 68.704ZM701.401 62.384V64.224H701.161C699.625 64.224 698.809 64.96 698.809 66.72V70H697.241V62.608H698.809V64.224H698.841C699.193 63.12 700.041 62.384 701.289 62.384H701.401ZM710.731 62.368C713.051 62.368 714.779 64.032 714.779 66.304C714.779 68.576 713.051 70.24 710.731 70.24C708.411 70.24 706.683 68.576 706.683 66.304C706.683 64.032 708.411 62.368 710.731 62.368ZM710.731 63.904C709.323 63.904 708.347 64.848 708.347 66.304C708.347 67.76 709.323 68.704 710.731 68.704C712.139 68.704 713.115 67.76 713.115 66.304C713.115 64.848 712.139 63.904 710.731 63.904ZM726.962 70L723.698 65.344H722.69V70H721.026V58.8H724.85C726.818 58.8 728.274 60.032 728.274 62.096C728.274 63.792 727.234 64.992 725.666 65.28L729.058 70H726.962ZM722.69 60.368V63.776H724.578C725.922 63.776 726.482 63.056 726.482 62.096C726.482 61.104 725.922 60.368 724.578 60.368H722.69ZM732.834 62.368C735.09 62.368 736.37 63.92 736.37 66.304V66.56H730.642C730.706 67.872 731.618 68.736 732.882 68.736C734.098 68.736 734.786 67.936 735.154 67.44L736.258 68.48C735.714 69.232 734.738 70.24 732.914 70.24C730.562 70.24 729.058 68.656 729.058 66.32C729.058 64.08 730.466 62.368 732.834 62.368ZM732.738 63.808C731.682 63.808 730.914 64.352 730.722 65.424H734.674C734.61 64.4 733.858 63.808 732.738 63.808ZM741.388 70.24C739.004 70.24 737.324 68.656 737.324 66.304C737.324 63.952 739.004 62.368 741.388 62.368C742.348 62.368 743.164 62.624 743.916 63.12L743.18 64.448C742.668 64.128 742.028 63.888 741.34 63.888C739.916 63.888 738.988 64.912 738.988 66.304C738.988 67.696 739.916 68.72 741.34 68.72C742.028 68.72 742.668 68.48 743.18 68.16L743.916 69.488C743.164 69.984 742.348 70.24 741.388 70.24ZM746.764 58.8V63.728H746.796C747.276 62.88 748.076 62.368 749.212 62.368C750.78 62.368 751.996 63.216 751.996 65.456V70H750.428V65.728C750.428 64.464 749.788 63.936 748.732 63.936C747.58 63.936 746.764 64.624 746.764 66.464V70H745.196V58.8H746.764ZM756.955 70.24C755.003 70.24 753.355 68.768 753.355 66.304C753.355 63.84 755.003 62.368 756.955 62.368C758.171 62.368 758.987 62.896 759.451 63.696H759.483V62.608H761.051V70H759.483V68.912H759.451C758.987 69.712 758.171 70.24 756.955 70.24ZM757.291 68.704C758.667 68.704 759.563 67.712 759.563 66.304C759.563 64.896 758.667 63.904 757.291 63.904C755.915 63.904 755.019 64.896 755.019 66.304C755.019 67.712 755.915 68.704 757.291 68.704ZM764.304 68.544H768.592V70H762.416V68.624L766.432 64.064H762.576V62.608H768.304V63.984L764.304 68.544ZM772.658 70.24C770.706 70.24 769.058 68.768 769.058 66.304C769.058 63.84 770.706 62.368 772.658 62.368C773.874 62.368 774.69 62.896 775.154 63.696H775.186V62.608H776.754V70H775.186V68.912H775.154C774.69 69.712 773.874 70.24 772.658 70.24ZM772.994 68.704C774.37 68.704 775.266 67.712 775.266 66.304C775.266 64.896 774.37 63.904 772.994 63.904C771.618 63.904 770.722 64.896 770.722 66.304C770.722 67.712 771.618 68.704 772.994 68.704ZM782.839 62.384V64.224H782.599C781.063 64.224 780.247 64.96 780.247 66.72V70H778.679V62.608H780.247V64.224H780.279C780.631 63.12 781.479 62.384 782.727 62.384H782.839Z" fill="#444444"/>
<path d="M528.306 70L525.042 65.344H524.034V70H522.37V58.8H526.194C528.162 58.8 529.618 60.032 529.618 62.096C529.618 63.792 528.578 64.992 527.01 65.28L530.402 70H528.306ZM524.034 60.368V63.776H525.922C527.266 63.776 527.826 63.056 527.826 62.096C527.826 61.104 527.266 60.368 525.922 60.368H524.034ZM534.178 62.368C536.434 62.368 537.714 63.92 537.714 66.304V66.56H531.986C532.05 67.872 532.962 68.736 534.226 68.736C535.442 68.736 536.13 67.936 536.498 67.44L537.602 68.48C537.058 69.232 536.082 70.24 534.258 70.24C531.906 70.24 530.402 68.656 530.402 66.32C530.402 64.08 531.81 62.368 534.178 62.368ZM534.082 63.808C533.026 63.808 532.258 64.352 532.066 65.424H536.018C535.954 64.4 535.202 63.808 534.082 63.808ZM541.436 70.24C540.38 70.24 539.276 69.952 538.428 69.456L539.132 68.064C539.82 68.464 540.604 68.768 541.484 68.768C542.236 68.768 542.636 68.544 542.636 68.08C542.636 67.776 542.476 67.552 541.852 67.248L540.508 66.592C539.388 66.064 538.956 65.312 538.956 64.464C538.956 63.104 539.964 62.368 541.58 62.368C542.428 62.368 543.356 62.592 544.14 62.944L543.5 64.304C542.94 64.064 542.252 63.824 541.532 63.824C540.844 63.824 540.62 64.048 540.62 64.384C540.62 64.736 540.828 64.96 541.468 65.264L542.844 65.92C543.804 66.368 544.316 67.008 544.316 68C544.316 69.504 543.164 70.24 541.436 70.24ZM548.225 70.24C546.769 70.24 545.521 69.36 545.521 67.088V62.608H547.121V66.928C547.121 68.144 547.729 68.72 548.673 68.72C549.761 68.72 550.529 68.016 550.529 66.144V62.608H552.097V70H550.529V68.88H550.497C550.129 69.616 549.425 70.24 548.225 70.24ZM554.023 70V62.608H555.591V63.76H555.623C556.055 62.768 556.903 62.368 557.847 62.368C558.903 62.368 559.655 62.832 560.087 63.872H560.119C560.567 62.816 561.51 62.368 562.439 62.368C563.831 62.368 564.967 63.232 564.967 65.424V70H563.399V65.504C563.399 64.48 562.887 63.936 561.943 63.936C560.983 63.936 560.279 64.56 560.279 66.16V70H558.711V65.504C558.711 64.48 558.199 63.936 557.239 63.936C556.295 63.936 555.591 64.56 555.591 66.176V70H554.023ZM570.1 62.368C572.356 62.368 573.636 63.92 573.636 66.304V66.56H567.908C567.972 67.872 568.884 68.736 570.148 68.736C571.364 68.736 572.052 67.936 572.42 67.44L573.524 68.48C572.98 69.232 572.004 70.24 570.18 70.24C567.828 70.24 566.324 68.656 566.324 66.32C566.324 64.08 567.732 62.368 570.1 62.368ZM570.004 63.808C568.948 63.808 568.18 64.352 567.988 65.424H571.94C571.876 64.4 571.124 63.808 570.004 63.808ZM579.085 62.368C580.669 62.368 581.869 63.216 581.869 65.456V70H580.301V65.728C580.301 64.464 579.661 63.936 578.605 63.936C577.453 63.936 576.637 64.624 576.637 66.464V70H575.069V62.608H576.637V63.728H576.669C577.149 62.88 577.949 62.368 579.085 62.368Z" fill="#444444"/>
<path d="M337.744 58.8C340.96 58.8 343.376 60.912 343.376 64.4C343.376 67.888 340.96 70 337.744 70H334.128V58.8H337.744ZM337.728 60.368H335.792V68.432H337.728C339.92 68.432 341.552 67.04 341.552 64.4C341.552 61.76 339.92 60.368 337.728 60.368ZM347.853 70.24C345.901 70.24 344.253 68.768 344.253 66.304C344.253 63.84 345.901 62.368 347.853 62.368C349.069 62.368 349.885 62.896 350.349 63.696H350.381V62.608H351.949V70H350.381V68.912H350.349C349.885 69.712 349.069 70.24 347.853 70.24ZM348.189 68.704C349.565 68.704 350.461 67.712 350.461 66.304C350.461 64.896 349.565 63.904 348.189 63.904C346.813 63.904 345.917 64.896 345.917 66.304C345.917 67.712 346.813 68.704 348.189 68.704ZM357.538 63.936H356.034V67.808C356.034 68.336 356.258 68.576 356.802 68.576H357.186V70.016H356.466C355.17 70.016 354.466 69.328 354.466 68.112V63.936H353.154V62.608H354.466V59.648H356.034V62.608H357.538V63.936ZM362.067 62.368C364.387 62.368 366.115 64.032 366.115 66.304C366.115 68.576 364.387 70.24 362.067 70.24C359.747 70.24 358.019 68.576 358.019 66.304C358.019 64.032 359.747 62.368 362.067 62.368ZM362.067 63.904C360.659 63.904 359.683 64.848 359.683 66.304C359.683 67.76 360.659 68.704 362.067 68.704C363.475 68.704 364.451 67.76 364.451 66.304C364.451 64.848 363.475 63.904 362.067 63.904ZM369.85 70.24C368.794 70.24 367.69 69.952 366.842 69.456L367.546 68.064C368.234 68.464 369.018 68.768 369.898 68.768C370.65 68.768 371.05 68.544 371.05 68.08C371.05 67.776 370.89 67.552 370.266 67.248L368.922 66.592C367.802 66.064 367.37 65.312 367.37 64.464C367.37 63.104 368.378 62.368 369.994 62.368C370.842 62.368 371.77 62.592 372.554 62.944L371.914 64.304C371.354 64.064 370.666 63.824 369.946 63.824C369.258 63.824 369.034 64.048 369.034 64.384C369.034 64.736 369.242 64.96 369.882 65.264L371.258 65.92C372.218 66.368 372.73 67.008 372.73 68C372.73 69.504 371.578 70.24 369.85 70.24ZM386.327 70L385.255 67.216H380.359L379.287 70H377.463L382.039 58.8H383.575L388.151 70H386.327ZM380.951 65.68H384.663L382.807 60.88L380.951 65.68ZM392.15 70.24C390.198 70.24 388.55 68.768 388.55 66.304C388.55 63.84 390.198 62.368 392.15 62.368C393.366 62.368 394.182 62.896 394.646 63.696H394.678V58.8H396.246V70H394.678V68.912H394.646C394.182 69.712 393.366 70.24 392.15 70.24ZM392.486 68.704C393.862 68.704 394.758 67.712 394.758 66.304C394.758 64.896 393.862 63.904 392.486 63.904C391.11 63.904 390.214 64.896 390.214 66.304C390.214 67.712 391.11 68.704 392.486 68.704ZM400.073 58.96V60.88H398.153V58.96H400.073ZM397.193 71.824H397.481C398.089 71.824 398.329 71.568 398.329 70.928V62.608H399.897V71.088C399.897 72.464 399.113 73.248 397.721 73.248H397.193V71.824ZM404.514 70.24C403.058 70.24 401.81 69.36 401.81 67.088V62.608H403.41V66.928C403.41 68.144 404.018 68.72 404.962 68.72C406.05 68.72 406.818 68.016 406.818 66.144V62.608H408.386V70H406.818V68.88H406.786C406.418 69.616 405.714 70.24 404.514 70.24ZM413.432 70.24C411.48 70.24 409.832 68.768 409.832 66.304C409.832 63.84 411.48 62.368 413.432 62.368C414.648 62.368 415.464 62.896 415.928 63.696H415.96V58.8H417.528V70H415.96V68.912H415.928C415.464 69.712 414.648 70.24 413.432 70.24ZM413.768 68.704C415.144 68.704 416.04 67.712 416.04 66.304C416.04 64.896 415.144 63.904 413.768 63.904C412.392 63.904 411.496 64.896 411.496 66.304C411.496 67.712 412.392 68.704 413.768 68.704ZM421.354 58.96V60.88H419.434V58.96H421.354ZM419.61 70V62.608H421.178V70H419.61ZM426.755 70.24C424.371 70.24 422.691 68.656 422.691 66.304C422.691 63.952 424.371 62.368 426.755 62.368C427.715 62.368 428.531 62.624 429.283 63.12L428.547 64.448C428.035 64.128 427.395 63.888 426.707 63.888C425.283 63.888 424.355 64.912 424.355 66.304C424.355 67.696 425.283 68.72 426.707 68.72C427.395 68.72 428.035 68.48 428.547 68.16L429.283 69.488C428.531 69.984 427.715 70.24 426.755 70.24ZM433.197 70.24C431.245 70.24 429.597 68.768 429.597 66.304C429.597 63.84 431.245 62.368 433.197 62.368C434.413 62.368 435.229 62.896 435.693 63.696H435.725V62.608H437.293V70H435.725V68.912H435.693C435.229 69.712 434.413 70.24 433.197 70.24ZM433.533 68.704C434.909 68.704 435.805 67.712 435.805 66.304C435.805 64.896 434.909 63.904 433.533 63.904C432.157 63.904 431.261 64.896 431.261 66.304C431.261 67.712 432.157 68.704 433.533 68.704ZM442.802 70.24C440.418 70.24 438.738 68.656 438.738 66.304C438.738 63.952 440.418 62.368 442.802 62.368C443.762 62.368 444.578 62.624 445.33 63.12L444.594 64.448C444.082 64.128 443.442 63.888 442.754 63.888C441.33 63.888 440.402 64.912 440.402 66.304C440.402 67.696 441.33 68.72 442.754 68.72C443.442 68.72 444.082 68.48 444.594 68.16L445.33 69.488C444.578 69.984 443.762 70.24 442.802 70.24ZM448.432 58.96V60.88H446.512V58.96H448.432ZM446.688 70V62.608H448.256V70H446.688ZM456.745 58.688L454.441 61.152H453.209L454.729 58.688H456.745ZM453.817 62.368C456.137 62.368 457.865 64.032 457.865 66.304C457.865 68.576 456.137 70.24 453.817 70.24C451.497 70.24 449.769 68.576 449.769 66.304C449.769 64.032 451.497 62.368 453.817 62.368ZM453.817 63.904C452.409 63.904 451.433 64.848 451.433 66.304C451.433 67.76 452.409 68.704 453.817 68.704C455.225 68.704 456.201 67.76 456.201 66.304C456.201 64.848 455.225 63.904 453.817 63.904ZM463.328 62.368C464.912 62.368 466.112 63.216 466.112 65.456V70H464.544V65.728C464.544 64.464 463.904 63.936 462.848 63.936C461.696 63.936 460.88 64.624 460.88 66.464V70H459.312V62.608H460.88V63.728H460.912C461.392 62.88 462.192 62.368 463.328 62.368Z" fill="#444444"/>
<path d="M165.22 58.8C168.436 58.8 170.852 60.912 170.852 64.4C170.852 67.888 168.436 70 165.22 70H161.604V58.8H165.22ZM165.204 60.368H163.268V68.432H165.204C167.396 68.432 169.028 67.04 169.028 64.4C169.028 61.76 167.396 60.368 165.204 60.368ZM175.778 62.368C178.098 62.368 179.826 64.032 179.826 66.304C179.826 68.576 178.098 70.24 175.778 70.24C173.458 70.24 171.73 68.576 171.73 66.304C171.73 64.032 173.458 62.368 175.778 62.368ZM175.778 63.904C174.37 63.904 173.394 64.848 173.394 66.304C173.394 67.76 174.37 68.704 175.778 68.704C177.186 68.704 178.162 67.76 178.162 66.304C178.162 64.848 177.186 63.904 175.778 63.904ZM184.857 70.24C182.473 70.24 180.793 68.656 180.793 66.304C180.793 63.952 182.473 62.368 184.857 62.368C185.817 62.368 186.633 62.624 187.385 63.12L186.649 64.448C186.137 64.128 185.497 63.888 184.809 63.888C183.385 63.888 182.457 64.912 182.457 66.304C182.457 67.696 183.385 68.72 184.809 68.72C185.497 68.72 186.137 68.48 186.649 68.16L187.385 69.488C186.633 69.984 185.817 70.24 184.857 70.24ZM191.287 70.24C189.831 70.24 188.583 69.36 188.583 67.088V62.608H190.183V66.928C190.183 68.144 190.791 68.72 191.735 68.72C192.823 68.72 193.591 68.016 193.591 66.144V62.608H195.159V70H193.591V68.88H193.559C193.191 69.616 192.487 70.24 191.287 70.24ZM197.085 70V62.608H198.653V63.76H198.685C199.117 62.768 199.965 62.368 200.909 62.368C201.965 62.368 202.717 62.832 203.149 63.872H203.181C203.629 62.816 204.573 62.368 205.501 62.368C206.893 62.368 208.029 63.232 208.029 65.424V70H206.461V65.504C206.461 64.48 205.949 63.936 205.005 63.936C204.045 63.936 203.341 64.56 203.341 66.16V70H201.773V65.504C201.773 64.48 201.261 63.936 200.301 63.936C199.357 63.936 198.653 64.56 198.653 66.176V70H197.085ZM213.162 62.368C215.418 62.368 216.698 63.92 216.698 66.304V66.56H210.97C211.034 67.872 211.946 68.736 213.21 68.736C214.426 68.736 215.114 67.936 215.482 67.44L216.586 68.48C216.042 69.232 215.066 70.24 213.242 70.24C210.89 70.24 209.386 68.656 209.386 66.32C209.386 64.08 210.794 62.368 213.162 62.368ZM213.066 63.808C212.01 63.808 211.242 64.352 211.05 65.424H215.002C214.938 64.4 214.186 63.808 213.066 63.808ZM222.148 62.368C223.732 62.368 224.932 63.216 224.932 65.456V70H223.364V65.728C223.364 64.464 222.724 63.936 221.668 63.936C220.516 63.936 219.7 64.624 219.7 66.464V70H218.132V62.608H219.7V63.728H219.732C220.212 62.88 221.012 62.368 222.148 62.368ZM230.03 63.936H228.526V67.808C228.526 68.336 228.75 68.576 229.294 68.576H229.678V70.016H228.958C227.662 70.016 226.958 69.328 226.958 68.112V63.936H225.646V62.608H226.958V59.648H228.526V62.608H230.03V63.936ZM234.559 62.368C236.879 62.368 238.607 64.032 238.607 66.304C238.607 68.576 236.879 70.24 234.559 70.24C232.239 70.24 230.511 68.576 230.511 66.304C230.511 64.032 232.239 62.368 234.559 62.368ZM234.559 63.904C233.151 63.904 232.175 64.848 232.175 66.304C232.175 67.76 233.151 68.704 234.559 68.704C235.967 68.704 236.943 67.76 236.943 66.304C236.943 64.848 235.967 63.904 234.559 63.904ZM242.342 70.24C241.286 70.24 240.182 69.952 239.334 69.456L240.038 68.064C240.726 68.464 241.51 68.768 242.39 68.768C243.142 68.768 243.542 68.544 243.542 68.08C243.542 67.776 243.382 67.552 242.758 67.248L241.414 66.592C240.294 66.064 239.862 65.312 239.862 64.464C239.862 63.104 240.87 62.368 242.486 62.368C243.334 62.368 244.262 62.592 245.046 62.944L244.406 64.304C243.846 64.064 243.158 63.824 242.438 63.824C241.75 63.824 241.526 64.048 241.526 64.384C241.526 64.736 241.734 64.96 242.374 65.264L243.75 65.92C244.71 66.368 245.222 67.008 245.222 68C245.222 69.504 244.07 70.24 242.342 70.24ZM260.991 58.8L263.711 70H261.935L260.079 62H260.047L257.535 68.288H256.287L253.775 62H253.743L251.887 70H250.111L252.831 58.8H254.191L256.895 65.68H256.927L259.631 58.8H260.991ZM266.613 58.8V70H264.917V58.8H266.613ZM272.678 58.8C274.902 58.8 276.15 60.256 276.15 62.192C276.15 64.112 274.902 65.584 272.678 65.584H270.518V70H268.854V58.8H272.678ZM272.454 64.016C273.606 64.016 274.358 63.392 274.358 62.192C274.358 60.992 273.606 60.368 272.454 60.368H270.518V64.016H272.454ZM285.079 58.8L281.575 65.504V70H279.895V65.52L276.391 58.8H278.327L280.711 63.744H280.759L283.143 58.8H285.079ZM295.398 58.8L298.118 70H296.342L294.486 62H294.454L291.942 68.288H290.694L288.182 62H288.15L286.294 70H284.518L287.238 58.8H288.598L291.302 65.68H291.334L294.038 58.8H295.398ZM300.987 68.432H305.803V70H299.323V58.8H305.723V60.368H300.987V63.024H305.355V64.592H300.987V68.432Z" fill="#323232"/>
<defs>
<clipPath id="clip0_0_1">
<rect width="44" height="44" fill="white" transform="translate(209)"/>
</clipPath>
<clipPath id="clip1_0_1">
<rect width="44" height="44" fill="white" transform="translate(531)"/>
</clipPath>
<clipPath id="clip2_0_1">
<rect width="44" height="44" fill="white" transform="translate(370)"/>
</clipPath>
<clipPath id="clip3_0_1">
<rect width="44" height="44" fill="white" transform="translate(692)"/>
</clipPath>
</defs>
</svg>
