<svg width="783" height="79" viewBox="0 0 783 79" fill="none" xmlns="http://www.w3.org/2000/svg">
<rect x="414" y="21" width="282" height="2" fill="#EEEEEE"/>
<rect x="92" y="21" width="220" height="2" fill="#444444"/>
<rect x="312" y="21" width="58" height="2" fill="#E0E83D"/>
<rect x="414" y="21" width="58" height="2" fill="#E0E83D"/>
<g clip-path="url(#clip0_0_1)">
<g clip-path="url(#clip1_0_1)">
<circle cx="70" cy="22" r="22" fill="#444444"/>
</g>
<path d="M75.599 17L74.8985 17.7021C74.6754 17.9257 73.039 19.6071 71.3495 21.3418C69.9554 22.7732 68.9456 23.8075 68.429 24.3361L65.0088 21.5947L64.2362 20.9752L63 22.524L63.7726 23.1435L67.8933 26.4476L68.5835 27L69.2119 26.3702C69.435 26.1466 71.0714 24.4652 72.7609 22.7305C74.4503 20.9959 76.1929 19.208 76.2995 19.1012L77 18.4042L75.599 17Z" fill="white"/>
</g>
<g clip-path="url(#clip2_0_1)">
<g clip-path="url(#clip3_0_1)">
<circle cx="231" cy="22" r="22" fill="#444444"/>
</g>
<path d="M236.599 17L235.898 17.7021C235.675 17.9257 234.039 19.6071 232.35 21.3418C230.955 22.7732 229.946 23.8075 229.429 24.3361L226.009 21.5947L225.236 20.9752L224 22.524L224.773 23.1435L228.893 26.4476L229.584 27L230.212 26.3702C230.435 26.1466 232.071 24.4652 233.761 22.7305C235.45 20.9959 237.193 19.208 237.299 19.1012L238 18.4042L236.599 17Z" fill="white"/>
</g>
<g clip-path="url(#clip4_0_1)">
<circle cx="553" cy="22" r="22" fill="#EEEEEE"/>
<path d="M556.92 24.592V26.096H555.784V28H554.248V26.096H549V24.784L554.296 17.2H555.784V24.592H556.92ZM550.696 24.592H554.248V19.584H554.184L550.696 24.592Z" fill="#444444"/>
</g>
<path fill-rule="evenodd" clip-rule="evenodd" d="M392 44C404.15 44 414 34.1503 414 22C414 9.84974 404.15 0 392 0C379.85 0 370 9.84974 370 22C370 34.1503 379.85 44 392 44ZM392 41.3333C402.678 41.3333 411.333 32.6775 411.333 22C411.333 11.3225 402.678 2.66667 392 2.66667C381.322 2.66667 372.667 11.3225 372.667 22C372.667 32.6775 381.322 41.3333 392 41.3333Z" fill="#E0E83D"/>
<circle cx="392" cy="22" r="16.6667" fill="#E0E83D"/>
<path d="M391.867 16.96C393.867 16.96 395.179 18.064 395.179 19.728C395.179 20.992 394.459 21.936 393.243 22.224V22.256C394.731 22.432 395.563 23.408 395.563 24.992C395.563 27.008 394.219 28.24 391.995 28.24C389.771 28.24 388.427 27.072 388.363 25.104H389.931C390.011 26.16 390.779 26.768 391.995 26.768C393.259 26.768 393.915 26.128 393.915 24.896C393.915 23.568 393.163 23.024 391.371 23.056H390.859V21.648H391.371C392.811 21.648 393.547 21.088 393.547 20C393.547 18.992 392.939 18.432 391.835 18.432C390.715 18.432 390.059 18.976 390.027 19.952H388.459C388.523 18.112 389.835 16.96 391.867 16.96Z" fill="#444444"/>
<g clip-path="url(#clip5_0_1)">
<circle cx="714" cy="22" r="22" fill="#EEEEEE"/>
<path d="M714.493 20.896C716.493 20.896 717.789 22.288 717.789 24.416C717.789 26.784 716.365 28.24 714.029 28.24C712.253 28.24 710.925 27.44 710.285 26L711.613 25.184C712.173 26.288 712.925 26.768 714.029 26.768C715.357 26.768 716.157 25.888 716.157 24.448C716.157 23.088 715.357 22.24 714.093 22.24C713.325 22.24 712.605 22.576 712.237 23.12H710.845L711.405 17.2H716.925V18.704H712.669L712.365 21.6H712.397C712.877 21.168 713.677 20.896 714.493 20.896Z" fill="#444444"/>
</g>
<path d="M652.944 70L651.872 67.216H646.976L645.904 70H644.08L648.656 58.8H650.192L654.768 70H652.944ZM647.568 65.68H651.28L649.424 60.88L647.568 65.68ZM655.804 73.2V62.608H657.372V63.696H657.404C657.868 62.896 658.684 62.368 659.9 62.368C661.852 62.368 663.5 63.84 663.5 66.304C663.5 68.768 661.852 70.24 659.9 70.24C658.684 70.24 657.868 69.712 657.404 68.912H657.372V73.2H655.804ZM659.564 68.704C660.94 68.704 661.836 67.712 661.836 66.304C661.836 64.896 660.94 63.904 659.564 63.904C658.188 63.904 657.292 64.896 657.292 66.304C657.292 67.712 658.188 68.704 659.564 68.704ZM669.104 62.384V64.224H668.864C667.328 64.224 666.512 64.96 666.512 66.72V70H664.944V62.608H666.512V64.224H666.544C666.896 63.12 667.744 62.384 668.992 62.384H669.104ZM673.387 62.368C675.707 62.368 677.435 64.032 677.435 66.304C677.435 68.576 675.707 70.24 673.387 70.24C671.067 70.24 669.339 68.576 669.339 66.304C669.339 64.032 671.067 62.368 673.387 62.368ZM673.387 63.904C671.979 63.904 671.003 64.848 671.003 66.304C671.003 67.76 671.979 68.704 673.387 68.704C674.795 68.704 675.771 67.76 675.771 66.304C675.771 64.848 674.795 63.904 673.387 63.904ZM683.058 70.24C681.842 70.24 681.026 69.712 680.562 68.912H680.53V70H678.962V58.8H680.53V63.696H680.562C681.026 62.896 681.842 62.368 683.058 62.368C685.01 62.368 686.658 63.84 686.658 66.304C686.658 68.768 685.01 70.24 683.058 70.24ZM682.722 68.704C684.098 68.704 684.994 67.712 684.994 66.304C684.994 64.896 684.098 63.904 682.722 63.904C681.346 63.904 680.45 64.896 680.45 66.304C680.45 67.712 681.346 68.704 682.722 68.704ZM691.221 70.24C689.269 70.24 687.621 68.768 687.621 66.304C687.621 63.84 689.269 62.368 691.221 62.368C692.437 62.368 693.253 62.896 693.717 63.696H693.749V62.608H695.317V70H693.749V68.912H693.717C693.253 69.712 692.437 70.24 691.221 70.24ZM691.557 68.704C692.933 68.704 693.829 67.712 693.829 66.304C693.829 64.896 692.933 63.904 691.557 63.904C690.181 63.904 689.285 64.896 689.285 66.304C689.285 67.712 690.181 68.704 691.557 68.704ZM701.401 62.384V64.224H701.161C699.625 64.224 698.809 64.96 698.809 66.72V70H697.241V62.608H698.809V64.224H698.841C699.193 63.12 700.041 62.384 701.289 62.384H701.401ZM710.731 62.368C713.051 62.368 714.779 64.032 714.779 66.304C714.779 68.576 713.051 70.24 710.731 70.24C708.411 70.24 706.683 68.576 706.683 66.304C706.683 64.032 708.411 62.368 710.731 62.368ZM710.731 63.904C709.323 63.904 708.347 64.848 708.347 66.304C708.347 67.76 709.323 68.704 710.731 68.704C712.139 68.704 713.115 67.76 713.115 66.304C713.115 64.848 712.139 63.904 710.731 63.904ZM726.962 70L723.698 65.344H722.69V70H721.026V58.8H724.85C726.818 58.8 728.274 60.032 728.274 62.096C728.274 63.792 727.234 64.992 725.666 65.28L729.058 70H726.962ZM722.69 60.368V63.776H724.578C725.922 63.776 726.482 63.056 726.482 62.096C726.482 61.104 725.922 60.368 724.578 60.368H722.69ZM732.834 62.368C735.09 62.368 736.37 63.92 736.37 66.304V66.56H730.642C730.706 67.872 731.618 68.736 732.882 68.736C734.098 68.736 734.786 67.936 735.154 67.44L736.258 68.48C735.714 69.232 734.738 70.24 732.914 70.24C730.562 70.24 729.058 68.656 729.058 66.32C729.058 64.08 730.466 62.368 732.834 62.368ZM732.738 63.808C731.682 63.808 730.914 64.352 730.722 65.424H734.674C734.61 64.4 733.858 63.808 732.738 63.808ZM741.388 70.24C739.004 70.24 737.324 68.656 737.324 66.304C737.324 63.952 739.004 62.368 741.388 62.368C742.348 62.368 743.164 62.624 743.916 63.12L743.18 64.448C742.668 64.128 742.028 63.888 741.34 63.888C739.916 63.888 738.988 64.912 738.988 66.304C738.988 67.696 739.916 68.72 741.34 68.72C742.028 68.72 742.668 68.48 743.18 68.16L743.916 69.488C743.164 69.984 742.348 70.24 741.388 70.24ZM746.764 58.8V63.728H746.796C747.276 62.88 748.076 62.368 749.212 62.368C750.78 62.368 751.996 63.216 751.996 65.456V70H750.428V65.728C750.428 64.464 749.788 63.936 748.732 63.936C747.58 63.936 746.764 64.624 746.764 66.464V70H745.196V58.8H746.764ZM756.955 70.24C755.003 70.24 753.355 68.768 753.355 66.304C753.355 63.84 755.003 62.368 756.955 62.368C758.171 62.368 758.987 62.896 759.451 63.696H759.483V62.608H761.051V70H759.483V68.912H759.451C758.987 69.712 758.171 70.24 756.955 70.24ZM757.291 68.704C758.667 68.704 759.563 67.712 759.563 66.304C759.563 64.896 758.667 63.904 757.291 63.904C755.915 63.904 755.019 64.896 755.019 66.304C755.019 67.712 755.915 68.704 757.291 68.704ZM764.304 68.544H768.592V70H762.416V68.624L766.432 64.064H762.576V62.608H768.304V63.984L764.304 68.544ZM772.658 70.24C770.706 70.24 769.058 68.768 769.058 66.304C769.058 63.84 770.706 62.368 772.658 62.368C773.874 62.368 774.69 62.896 775.154 63.696H775.186V62.608H776.754V70H775.186V68.912H775.154C774.69 69.712 773.874 70.24 772.658 70.24ZM772.994 68.704C774.37 68.704 775.266 67.712 775.266 66.304C775.266 64.896 774.37 63.904 772.994 63.904C771.618 63.904 770.722 64.896 770.722 66.304C770.722 67.712 771.618 68.704 772.994 68.704ZM782.839 62.384V64.224H782.599C781.063 64.224 780.247 64.96 780.247 66.72V70H778.679V62.608H780.247V64.224H780.279C780.631 63.12 781.479 62.384 782.727 62.384H782.839Z" fill="#444444"/>
<path d="M528.306 70L525.042 65.344H524.034V70H522.37V58.8H526.194C528.162 58.8 529.618 60.032 529.618 62.096C529.618 63.792 528.578 64.992 527.01 65.28L530.402 70H528.306ZM524.034 60.368V63.776H525.922C527.266 63.776 527.826 63.056 527.826 62.096C527.826 61.104 527.266 60.368 525.922 60.368H524.034ZM534.178 62.368C536.434 62.368 537.714 63.92 537.714 66.304V66.56H531.986C532.05 67.872 532.962 68.736 534.226 68.736C535.442 68.736 536.13 67.936 536.498 67.44L537.602 68.48C537.058 69.232 536.082 70.24 534.258 70.24C531.906 70.24 530.402 68.656 530.402 66.32C530.402 64.08 531.81 62.368 534.178 62.368ZM534.082 63.808C533.026 63.808 532.258 64.352 532.066 65.424H536.018C535.954 64.4 535.202 63.808 534.082 63.808ZM541.436 70.24C540.38 70.24 539.276 69.952 538.428 69.456L539.132 68.064C539.82 68.464 540.604 68.768 541.484 68.768C542.236 68.768 542.636 68.544 542.636 68.08C542.636 67.776 542.476 67.552 541.852 67.248L540.508 66.592C539.388 66.064 538.956 65.312 538.956 64.464C538.956 63.104 539.964 62.368 541.58 62.368C542.428 62.368 543.356 62.592 544.14 62.944L543.5 64.304C542.94 64.064 542.252 63.824 541.532 63.824C540.844 63.824 540.62 64.048 540.62 64.384C540.62 64.736 540.828 64.96 541.468 65.264L542.844 65.92C543.804 66.368 544.316 67.008 544.316 68C544.316 69.504 543.164 70.24 541.436 70.24ZM548.225 70.24C546.769 70.24 545.521 69.36 545.521 67.088V62.608H547.121V66.928C547.121 68.144 547.729 68.72 548.673 68.72C549.761 68.72 550.529 68.016 550.529 66.144V62.608H552.097V70H550.529V68.88H550.497C550.129 69.616 549.425 70.24 548.225 70.24ZM554.023 70V62.608H555.591V63.76H555.623C556.055 62.768 556.903 62.368 557.847 62.368C558.903 62.368 559.655 62.832 560.087 63.872H560.119C560.567 62.816 561.51 62.368 562.439 62.368C563.831 62.368 564.967 63.232 564.967 65.424V70H563.399V65.504C563.399 64.48 562.887 63.936 561.943 63.936C560.983 63.936 560.279 64.56 560.279 66.16V70H558.711V65.504C558.711 64.48 558.199 63.936 557.239 63.936C556.295 63.936 555.591 64.56 555.591 66.176V70H554.023ZM570.1 62.368C572.356 62.368 573.636 63.92 573.636 66.304V66.56H567.908C567.972 67.872 568.884 68.736 570.148 68.736C571.364 68.736 572.052 67.936 572.42 67.44L573.524 68.48C572.98 69.232 572.004 70.24 570.18 70.24C567.828 70.24 566.324 68.656 566.324 66.32C566.324 64.08 567.732 62.368 570.1 62.368ZM570.004 63.808C568.948 63.808 568.18 64.352 567.988 65.424H571.94C571.876 64.4 571.124 63.808 570.004 63.808ZM579.085 62.368C580.669 62.368 581.869 63.216 581.869 65.456V70H580.301V65.728C580.301 64.464 579.661 63.936 578.605 63.936C577.453 63.936 576.637 64.624 576.637 66.464V70H575.069V62.608H576.637V63.728H576.669C577.149 62.88 577.949 62.368 579.085 62.368Z" fill="#444444"/>
<line x1="334" y1="77.0417" x2="465.398" y2="77.0417" stroke="#E0E83D" stroke-width="2"/>
<path d="M337.744 57.8C340.96 57.8 343.376 59.912 343.376 63.4C343.376 66.888 340.96 69 337.744 69H334.128V57.8H337.744ZM337.728 59.368H335.792V67.432H337.728C339.92 67.432 341.552 66.04 341.552 63.4C341.552 60.76 339.92 59.368 337.728 59.368ZM347.853 69.24C345.901 69.24 344.253 67.768 344.253 65.304C344.253 62.84 345.901 61.368 347.853 61.368C349.069 61.368 349.885 61.896 350.349 62.696H350.381V61.608H351.949V69H350.381V67.912H350.349C349.885 68.712 349.069 69.24 347.853 69.24ZM348.189 67.704C349.565 67.704 350.461 66.712 350.461 65.304C350.461 63.896 349.565 62.904 348.189 62.904C346.813 62.904 345.917 63.896 345.917 65.304C345.917 66.712 346.813 67.704 348.189 67.704ZM357.538 62.936H356.034V66.808C356.034 67.336 356.258 67.576 356.802 67.576H357.186V69.016H356.466C355.17 69.016 354.466 68.328 354.466 67.112V62.936H353.154V61.608H354.466V58.648H356.034V61.608H357.538V62.936ZM362.067 61.368C364.387 61.368 366.115 63.032 366.115 65.304C366.115 67.576 364.387 69.24 362.067 69.24C359.747 69.24 358.019 67.576 358.019 65.304C358.019 63.032 359.747 61.368 362.067 61.368ZM362.067 62.904C360.659 62.904 359.683 63.848 359.683 65.304C359.683 66.76 360.659 67.704 362.067 67.704C363.475 67.704 364.451 66.76 364.451 65.304C364.451 63.848 363.475 62.904 362.067 62.904ZM369.85 69.24C368.794 69.24 367.69 68.952 366.842 68.456L367.546 67.064C368.234 67.464 369.018 67.768 369.898 67.768C370.65 67.768 371.05 67.544 371.05 67.08C371.05 66.776 370.89 66.552 370.266 66.248L368.922 65.592C367.802 65.064 367.37 64.312 367.37 63.464C367.37 62.104 368.378 61.368 369.994 61.368C370.842 61.368 371.77 61.592 372.554 61.944L371.914 63.304C371.354 63.064 370.666 62.824 369.946 62.824C369.258 62.824 369.034 63.048 369.034 63.384C369.034 63.736 369.242 63.96 369.882 64.264L371.258 64.92C372.218 65.368 372.73 66.008 372.73 67C372.73 68.504 371.578 69.24 369.85 69.24ZM386.327 69L385.255 66.216H380.359L379.287 69H377.463L382.039 57.8H383.575L388.151 69H386.327ZM380.951 64.68H384.663L382.807 59.88L380.951 64.68ZM392.15 69.24C390.198 69.24 388.55 67.768 388.55 65.304C388.55 62.84 390.198 61.368 392.15 61.368C393.366 61.368 394.182 61.896 394.646 62.696H394.678V57.8H396.246V69H394.678V67.912H394.646C394.182 68.712 393.366 69.24 392.15 69.24ZM392.486 67.704C393.862 67.704 394.758 66.712 394.758 65.304C394.758 63.896 393.862 62.904 392.486 62.904C391.11 62.904 390.214 63.896 390.214 65.304C390.214 66.712 391.11 67.704 392.486 67.704ZM400.073 57.96V59.88H398.153V57.96H400.073ZM397.193 70.824H397.481C398.089 70.824 398.329 70.568 398.329 69.928V61.608H399.897V70.088C399.897 71.464 399.113 72.248 397.721 72.248H397.193V70.824ZM404.514 69.24C403.058 69.24 401.81 68.36 401.81 66.088V61.608H403.41V65.928C403.41 67.144 404.018 67.72 404.962 67.72C406.05 67.72 406.818 67.016 406.818 65.144V61.608H408.386V69H406.818V67.88H406.786C406.418 68.616 405.714 69.24 404.514 69.24ZM413.432 69.24C411.48 69.24 409.832 67.768 409.832 65.304C409.832 62.84 411.48 61.368 413.432 61.368C414.648 61.368 415.464 61.896 415.928 62.696H415.96V57.8H417.528V69H415.96V67.912H415.928C415.464 68.712 414.648 69.24 413.432 69.24ZM413.768 67.704C415.144 67.704 416.04 66.712 416.04 65.304C416.04 63.896 415.144 62.904 413.768 62.904C412.392 62.904 411.496 63.896 411.496 65.304C411.496 66.712 412.392 67.704 413.768 67.704ZM421.354 57.96V59.88H419.434V57.96H421.354ZM419.61 69V61.608H421.178V69H419.61ZM426.755 69.24C424.371 69.24 422.691 67.656 422.691 65.304C422.691 62.952 424.371 61.368 426.755 61.368C427.715 61.368 428.531 61.624 429.283 62.12L428.547 63.448C428.035 63.128 427.395 62.888 426.707 62.888C425.283 62.888 424.355 63.912 424.355 65.304C424.355 66.696 425.283 67.72 426.707 67.72C427.395 67.72 428.035 67.48 428.547 67.16L429.283 68.488C428.531 68.984 427.715 69.24 426.755 69.24ZM433.197 69.24C431.245 69.24 429.597 67.768 429.597 65.304C429.597 62.84 431.245 61.368 433.197 61.368C434.413 61.368 435.229 61.896 435.693 62.696H435.725V61.608H437.293V69H435.725V67.912H435.693C435.229 68.712 434.413 69.24 433.197 69.24ZM433.533 67.704C434.909 67.704 435.805 66.712 435.805 65.304C435.805 63.896 434.909 62.904 433.533 62.904C432.157 62.904 431.261 63.896 431.261 65.304C431.261 66.712 432.157 67.704 433.533 67.704ZM442.802 69.24C440.418 69.24 438.738 67.656 438.738 65.304C438.738 62.952 440.418 61.368 442.802 61.368C443.762 61.368 444.578 61.624 445.33 62.12L444.594 63.448C444.082 63.128 443.442 62.888 442.754 62.888C441.33 62.888 440.402 63.912 440.402 65.304C440.402 66.696 441.33 67.72 442.754 67.72C443.442 67.72 444.082 67.48 444.594 67.16L445.33 68.488C444.578 68.984 443.762 69.24 442.802 69.24ZM448.432 57.96V59.88H446.512V57.96H448.432ZM446.688 69V61.608H448.256V69H446.688ZM456.745 57.688L454.441 60.152H453.209L454.729 57.688H456.745ZM453.817 61.368C456.137 61.368 457.865 63.032 457.865 65.304C457.865 67.576 456.137 69.24 453.817 69.24C451.497 69.24 449.769 67.576 449.769 65.304C449.769 63.032 451.497 61.368 453.817 61.368ZM453.817 62.904C452.409 62.904 451.433 63.848 451.433 65.304C451.433 66.76 452.409 67.704 453.817 67.704C455.225 67.704 456.201 66.76 456.201 65.304C456.201 63.848 455.225 62.904 453.817 62.904ZM463.328 61.368C464.912 61.368 466.112 62.216 466.112 64.456V69H464.544V64.728C464.544 63.464 463.904 62.936 462.848 62.936C461.696 62.936 460.88 63.624 460.88 65.464V69H459.312V61.608H460.88V62.728H460.912C461.392 61.88 462.192 61.368 463.328 61.368Z" fill="#444444"/>
<path d="M162.22 58.8C165.436 58.8 167.852 60.912 167.852 64.4C167.852 67.888 165.436 70 162.22 70H158.604V58.8H162.22ZM162.204 60.368H160.268V68.432H162.204C164.396 68.432 166.028 67.04 166.028 64.4C166.028 61.76 164.396 60.368 162.204 60.368ZM172.778 62.368C175.098 62.368 176.826 64.032 176.826 66.304C176.826 68.576 175.098 70.24 172.778 70.24C170.458 70.24 168.73 68.576 168.73 66.304C168.73 64.032 170.458 62.368 172.778 62.368ZM172.778 63.904C171.37 63.904 170.394 64.848 170.394 66.304C170.394 67.76 171.37 68.704 172.778 68.704C174.186 68.704 175.162 67.76 175.162 66.304C175.162 64.848 174.186 63.904 172.778 63.904ZM181.857 70.24C179.473 70.24 177.793 68.656 177.793 66.304C177.793 63.952 179.473 62.368 181.857 62.368C182.817 62.368 183.633 62.624 184.385 63.12L183.649 64.448C183.137 64.128 182.497 63.888 181.809 63.888C180.385 63.888 179.457 64.912 179.457 66.304C179.457 67.696 180.385 68.72 181.809 68.72C182.497 68.72 183.137 68.48 183.649 68.16L184.385 69.488C183.633 69.984 182.817 70.24 181.857 70.24ZM188.287 70.24C186.831 70.24 185.583 69.36 185.583 67.088V62.608H187.183V66.928C187.183 68.144 187.791 68.72 188.735 68.72C189.823 68.72 190.591 68.016 190.591 66.144V62.608H192.159V70H190.591V68.88H190.559C190.191 69.616 189.487 70.24 188.287 70.24ZM194.085 70V62.608H195.653V63.76H195.685C196.117 62.768 196.965 62.368 197.909 62.368C198.965 62.368 199.717 62.832 200.149 63.872H200.181C200.629 62.816 201.573 62.368 202.501 62.368C203.893 62.368 205.029 63.232 205.029 65.424V70H203.461V65.504C203.461 64.48 202.949 63.936 202.005 63.936C201.045 63.936 200.341 64.56 200.341 66.16V70H198.773V65.504C198.773 64.48 198.261 63.936 197.301 63.936C196.357 63.936 195.653 64.56 195.653 66.176V70H194.085ZM210.162 62.368C212.418 62.368 213.698 63.92 213.698 66.304V66.56H207.97C208.034 67.872 208.946 68.736 210.21 68.736C211.426 68.736 212.114 67.936 212.482 67.44L213.586 68.48C213.042 69.232 212.066 70.24 210.242 70.24C207.89 70.24 206.386 68.656 206.386 66.32C206.386 64.08 207.794 62.368 210.162 62.368ZM210.066 63.808C209.01 63.808 208.242 64.352 208.05 65.424H212.002C211.938 64.4 211.186 63.808 210.066 63.808ZM219.148 62.368C220.732 62.368 221.932 63.216 221.932 65.456V70H220.364V65.728C220.364 64.464 219.724 63.936 218.668 63.936C217.516 63.936 216.7 64.624 216.7 66.464V70H215.132V62.608H216.7V63.728H216.732C217.212 62.88 218.012 62.368 219.148 62.368ZM227.03 63.936H225.526V67.808C225.526 68.336 225.75 68.576 226.294 68.576H226.678V70.016H225.958C224.662 70.016 223.958 69.328 223.958 68.112V63.936H222.646V62.608H223.958V59.648H225.526V62.608H227.03V63.936ZM231.559 62.368C233.879 62.368 235.607 64.032 235.607 66.304C235.607 68.576 233.879 70.24 231.559 70.24C229.239 70.24 227.511 68.576 227.511 66.304C227.511 64.032 229.239 62.368 231.559 62.368ZM231.559 63.904C230.151 63.904 229.175 64.848 229.175 66.304C229.175 67.76 230.151 68.704 231.559 68.704C232.967 68.704 233.943 67.76 233.943 66.304C233.943 64.848 232.967 63.904 231.559 63.904ZM239.342 70.24C238.286 70.24 237.182 69.952 236.334 69.456L237.038 68.064C237.726 68.464 238.51 68.768 239.39 68.768C240.142 68.768 240.542 68.544 240.542 68.08C240.542 67.776 240.382 67.552 239.758 67.248L238.414 66.592C237.294 66.064 236.862 65.312 236.862 64.464C236.862 63.104 237.87 62.368 239.486 62.368C240.334 62.368 241.262 62.592 242.046 62.944L241.406 64.304C240.846 64.064 240.158 63.824 239.438 63.824C238.75 63.824 238.526 64.048 238.526 64.384C238.526 64.736 238.734 64.96 239.374 65.264L240.75 65.92C241.71 66.368 242.222 67.008 242.222 68C242.222 69.504 241.07 70.24 239.342 70.24ZM257.991 58.8L260.711 70H258.935L257.079 62H257.047L254.535 68.288H253.287L250.775 62H250.743L248.887 70H247.111L249.831 58.8H251.191L253.895 65.68H253.927L256.631 58.8H257.991ZM263.613 58.8V70H261.917V58.8H263.613ZM269.678 58.8C271.902 58.8 273.15 60.256 273.15 62.192C273.15 64.112 271.902 65.584 269.678 65.584H267.518V70H265.854V58.8H269.678ZM269.454 64.016C270.606 64.016 271.358 63.392 271.358 62.192C271.358 60.992 270.606 60.368 269.454 60.368H267.518V64.016H269.454ZM282.079 58.8L278.575 65.504V70H276.895V65.52L273.391 58.8H275.327L277.711 63.744H277.759L280.143 58.8H282.079ZM292.398 58.8L295.118 70H293.342L291.486 62H291.454L288.942 68.288H287.694L285.182 62H285.15L283.294 70H281.518L284.238 58.8H285.598L288.302 65.68H288.334L291.038 58.8H292.398ZM297.987 68.432H302.803V70H296.323V58.8H302.723V60.368H297.987V63.024H302.355V64.592H297.987V68.432Z" fill="#323232"/>
<path d="M2.0035 58.8V70H0.3075V58.8H2.0035ZM8.101 62.368C9.685 62.368 10.885 63.216 10.885 65.456V70H9.317V65.728C9.317 64.464 8.677 63.936 7.621 63.936C6.469 63.936 5.653 64.624 5.653 66.464V70H4.085V62.608H5.653V63.728H5.685C6.165 62.88 6.965 62.368 8.101 62.368ZM15.8531 60.096C15.1011 60.096 14.5091 60.464 14.5091 61.536V62.608H15.9651V63.936H14.5091V70H12.9411V63.936H11.7731V62.608H12.9411V61.584C12.9411 59.76 13.9651 58.64 15.7891 58.64H16.0931V60.096H15.8531ZM20.3718 62.368C22.6918 62.368 24.4198 64.032 24.4198 66.304C24.4198 68.576 22.6918 70.24 20.3718 70.24C18.0518 70.24 16.3238 68.576 16.3238 66.304C16.3238 64.032 18.0518 62.368 20.3718 62.368ZM20.3718 63.904C18.9638 63.904 17.9878 64.848 17.9878 66.304C17.9878 67.76 18.9638 68.704 20.3718 68.704C21.7798 68.704 22.7558 67.76 22.7558 66.304C22.7558 64.848 21.7798 63.904 20.3718 63.904ZM30.0263 62.384V64.224H29.7863C28.2503 64.224 27.4343 64.96 27.4343 66.72V70H25.8663V62.608H27.4343V64.224H27.4663C27.8183 63.12 28.6663 62.384 29.9143 62.384H30.0263ZM31.1475 70V62.608H32.7155V63.76H32.7475C33.1795 62.768 34.0275 62.368 34.9715 62.368C36.0275 62.368 36.7795 62.832 37.2115 63.872H37.2435C37.6915 62.816 38.6355 62.368 39.5635 62.368C40.9555 62.368 42.0915 63.232 42.0915 65.424V70H40.5235V65.504C40.5235 64.48 40.0115 63.936 39.0675 63.936C38.1075 63.936 37.4035 64.56 37.4035 66.16V70H35.8355V65.504C35.8355 64.48 35.3235 63.936 34.3635 63.936C33.4195 63.936 32.7155 64.56 32.7155 66.176V70H31.1475ZM47.0488 70.24C45.0968 70.24 43.4488 68.768 43.4488 66.304C43.4488 63.84 45.0968 62.368 47.0488 62.368C48.2648 62.368 49.0808 62.896 49.5448 63.696H49.5768V62.608H51.1448V70H49.5768V68.912H49.5448C49.0808 69.712 48.2648 70.24 47.0488 70.24ZM47.3848 68.704C48.7608 68.704 49.6568 67.712 49.6568 66.304C49.6568 64.896 48.7608 63.904 47.3848 63.904C46.0088 63.904 45.1128 64.896 45.1128 66.304C45.1128 67.712 46.0088 68.704 47.3848 68.704ZM56.6534 70.24C54.2694 70.24 52.5894 68.656 52.5894 66.304C52.5894 63.952 54.2694 62.368 56.6534 62.368C57.6134 62.368 58.4294 62.624 59.1814 63.12L58.4454 64.448C57.9334 64.128 57.2934 63.888 56.6054 63.888C55.1814 63.888 54.2534 64.912 54.2534 66.304C54.2534 67.696 55.1814 68.72 56.6054 68.72C57.2934 68.72 57.9334 68.48 58.4454 68.16L59.1814 69.488C58.4294 69.984 57.6134 70.24 56.6534 70.24ZM62.284 58.96V60.88H60.364V58.96H62.284ZM60.54 70V62.608H62.108V70H60.54ZM70.5966 58.688L68.2926 61.152H67.0606L68.5806 58.688H70.5966ZM67.6686 62.368C69.9886 62.368 71.7166 64.032 71.7166 66.304C71.7166 68.576 69.9886 70.24 67.6686 70.24C65.3486 70.24 63.6206 68.576 63.6206 66.304C63.6206 64.032 65.3486 62.368 67.6686 62.368ZM67.6686 63.904C66.2606 63.904 65.2846 64.848 65.2846 66.304C65.2846 67.76 66.2606 68.704 67.6686 68.704C69.0766 68.704 70.0526 67.76 70.0526 66.304C70.0526 64.848 69.0766 63.904 67.6686 63.904ZM77.1791 62.368C78.7631 62.368 79.9631 63.216 79.9631 65.456V70H78.3951V65.728C78.3951 64.464 77.7551 63.936 76.6991 63.936C75.5471 63.936 74.7311 64.624 74.7311 66.464V70H73.1631V62.608H74.7311V63.728H74.7631C75.2431 62.88 76.0431 62.368 77.1791 62.368ZM96.2881 58.8L99.0081 70H97.2321L95.3761 62H95.3441L92.8321 68.288H91.5841L89.0721 62H89.0401L87.1841 70H85.4081L88.1281 58.8H89.4881L92.1921 65.68H92.2241L94.9281 58.8H96.2881ZM101.91 58.8V70H100.214V58.8H101.91ZM107.975 58.8C110.199 58.8 111.447 60.256 111.447 62.192C111.447 64.112 110.199 65.584 107.975 65.584H105.815V70H104.151V58.8H107.975ZM107.751 64.016C108.903 64.016 109.655 63.392 109.655 62.192C109.655 60.992 108.903 60.368 107.751 60.368H105.815V64.016H107.751ZM120.376 58.8L116.872 65.504V70H115.192V65.52L111.688 58.8H113.624L116.008 63.744H116.056L118.44 58.8H120.376ZM130.694 58.8L133.414 70H131.638L129.782 62H129.75L127.238 68.288H125.99L123.478 62H123.446L121.59 70H119.814L122.534 58.8H123.894L126.598 65.68H126.63L129.334 58.8H130.694ZM136.284 68.432H141.1V70H134.62V58.8H141.02V60.368H136.284V63.024H140.652V64.592H136.284V68.432Z" fill="#323232"/>
<defs>
<clipPath id="clip0_0_1">
<rect width="44" height="44" fill="white" transform="translate(48)"/>
</clipPath>
<clipPath id="clip1_0_1">
<rect width="44" height="44" fill="white" transform="translate(48)"/>
</clipPath>
<clipPath id="clip2_0_1">
<rect width="44" height="44" fill="white" transform="translate(209)"/>
</clipPath>
<clipPath id="clip3_0_1">
<rect width="44" height="44" fill="white" transform="translate(209)"/>
</clipPath>
<clipPath id="clip4_0_1">
<rect width="44" height="44" fill="white" transform="translate(531)"/>
</clipPath>
<clipPath id="clip5_0_1">
<rect width="44" height="44" fill="white" transform="translate(692)"/>
</clipPath>
</defs>
</svg>
