<svg width="785" height="92" viewBox="0 0 785 92" fill="none" xmlns="http://www.w3.org/2000/svg">
<rect x="309" y="21" width="380" height="2" fill="#EEEEEE"/>
<rect x="85" y="21" width="64" height="2" fill="#444444"/>
<rect x="138" y="21" width="64" height="2" fill="#E0E83D"/>
<rect x="246" y="21" width="63" height="2" fill="#E0E83D"/>
<g clip-path="url(#clip0_0_1)">
<g clip-path="url(#clip1_0_1)">
<circle cx="63" cy="22" r="22" fill="#444444"/>
</g>
<path d="M68.599 17L67.8985 17.7021C67.6754 17.9257 66.039 19.6071 64.3495 21.3418C62.9554 22.7732 61.9456 23.8075 61.429 24.3361L58.0088 21.5947L57.2362 20.9752L56 22.524L56.7726 23.1435L60.8933 26.4476L61.5835 27L62.2119 26.3702C62.435 26.1466 64.0714 24.4652 65.7609 22.7305C67.4503 20.9959 69.1929 19.208 69.2995 19.1012L70 18.4042L68.599 17Z" fill="white"/>
</g>
<path fill-rule="evenodd" clip-rule="evenodd" d="M224 44C236.15 44 246 34.1503 246 22C246 9.84974 236.15 0 224 0C211.85 0 202 9.84974 202 22C202 34.1503 211.85 44 224 44ZM224 41.3333C234.678 41.3333 243.333 32.6775 243.333 22C243.333 11.3225 234.678 2.66667 224 2.66667C213.322 2.66667 204.667 11.3225 204.667 22C204.667 32.6775 213.322 41.3333 224 41.3333Z" fill="#E0E83D"/>
<circle cx="224" cy="22" r="16.6667" fill="#E0E83D"/>
<path d="M220.496 28V26.848L224.224 22.624C225.264 21.456 225.632 20.784 225.632 20.048C225.632 19.056 224.976 18.432 223.936 18.432C222.832 18.432 222.128 19.104 222.096 20.208H220.528C220.576 18.208 221.904 16.96 224 16.96C226.032 16.96 227.264 18.096 227.264 19.968C227.264 21.088 226.784 22.048 225.536 23.44L222.784 26.496H227.248V28H220.496Z" fill="#444444"/>
<g clip-path="url(#clip2_0_1)">
<circle cx="546" cy="22" r="22" fill="#EEEEEE"/>
<path d="M549.92 24.592V26.096H548.784V28H547.248V26.096H542V24.784L547.296 17.2H548.784V24.592H549.92ZM543.696 24.592H547.248V19.584H547.184L543.696 24.592Z" fill="#444444"/>
</g>
<g clip-path="url(#clip3_0_1)">
<circle cx="385" cy="22" r="22" fill="#EEEEEE"/>
<path d="M384.867 16.96C386.867 16.96 388.179 18.064 388.179 19.728C388.179 20.992 387.459 21.936 386.243 22.224V22.256C387.731 22.432 388.563 23.408 388.563 24.992C388.563 27.008 387.219 28.24 384.995 28.24C382.771 28.24 381.427 27.072 381.363 25.104H382.931C383.011 26.16 383.779 26.768 384.995 26.768C386.259 26.768 386.915 26.128 386.915 24.896C386.915 23.568 386.163 23.024 384.371 23.056H383.859V21.648H384.371C385.811 21.648 386.547 21.088 386.547 20C386.547 18.992 385.939 18.432 384.835 18.432C383.715 18.432 383.059 18.976 383.027 19.952H381.459C381.523 18.112 382.835 16.96 384.867 16.96Z" fill="#444444"/>
</g>
<g clip-path="url(#clip4_0_1)">
<circle cx="707" cy="22" r="22" fill="#EEEEEE"/>
<path d="M707.493 20.896C709.493 20.896 710.789 22.288 710.789 24.416C710.789 26.784 709.365 28.24 707.029 28.24C705.253 28.24 703.925 27.44 703.285 26L704.613 25.184C705.173 26.288 705.925 26.768 707.029 26.768C708.357 26.768 709.157 25.888 709.157 24.448C709.157 23.088 708.357 22.24 707.093 22.24C706.325 22.24 705.605 22.576 705.237 23.12H703.845L704.405 17.2H709.925V18.704H705.669L705.365 21.6H705.397C705.877 21.168 706.677 20.896 707.493 20.896Z" fill="#444444"/>
</g>
<path d="M654.944 70L653.872 67.216H648.976L647.904 70H646.08L650.656 58.8H652.192L656.768 70H654.944ZM649.568 65.68H653.28L651.424 60.88L649.568 65.68ZM657.804 73.2V62.608H659.372V63.696H659.404C659.868 62.896 660.684 62.368 661.9 62.368C663.852 62.368 665.5 63.84 665.5 66.304C665.5 68.768 663.852 70.24 661.9 70.24C660.684 70.24 659.868 69.712 659.404 68.912H659.372V73.2H657.804ZM661.564 68.704C662.94 68.704 663.836 67.712 663.836 66.304C663.836 64.896 662.94 63.904 661.564 63.904C660.188 63.904 659.292 64.896 659.292 66.304C659.292 67.712 660.188 68.704 661.564 68.704ZM671.104 62.384V64.224H670.864C669.328 64.224 668.512 64.96 668.512 66.72V70H666.944V62.608H668.512V64.224H668.544C668.896 63.12 669.744 62.384 670.992 62.384H671.104ZM675.387 62.368C677.707 62.368 679.435 64.032 679.435 66.304C679.435 68.576 677.707 70.24 675.387 70.24C673.067 70.24 671.339 68.576 671.339 66.304C671.339 64.032 673.067 62.368 675.387 62.368ZM675.387 63.904C673.979 63.904 673.003 64.848 673.003 66.304C673.003 67.76 673.979 68.704 675.387 68.704C676.795 68.704 677.771 67.76 677.771 66.304C677.771 64.848 676.795 63.904 675.387 63.904ZM685.058 70.24C683.842 70.24 683.026 69.712 682.562 68.912H682.53V70H680.962V58.8H682.53V63.696H682.562C683.026 62.896 683.842 62.368 685.058 62.368C687.01 62.368 688.658 63.84 688.658 66.304C688.658 68.768 687.01 70.24 685.058 70.24ZM684.722 68.704C686.098 68.704 686.994 67.712 686.994 66.304C686.994 64.896 686.098 63.904 684.722 63.904C683.346 63.904 682.45 64.896 682.45 66.304C682.45 67.712 683.346 68.704 684.722 68.704ZM693.221 70.24C691.269 70.24 689.621 68.768 689.621 66.304C689.621 63.84 691.269 62.368 693.221 62.368C694.437 62.368 695.253 62.896 695.717 63.696H695.749V62.608H697.317V70H695.749V68.912H695.717C695.253 69.712 694.437 70.24 693.221 70.24ZM693.557 68.704C694.933 68.704 695.829 67.712 695.829 66.304C695.829 64.896 694.933 63.904 693.557 63.904C692.181 63.904 691.285 64.896 691.285 66.304C691.285 67.712 692.181 68.704 693.557 68.704ZM703.401 62.384V64.224H703.161C701.625 64.224 700.809 64.96 700.809 66.72V70H699.241V62.608H700.809V64.224H700.841C701.193 63.12 702.041 62.384 703.289 62.384H703.401ZM712.731 62.368C715.051 62.368 716.779 64.032 716.779 66.304C716.779 68.576 715.051 70.24 712.731 70.24C710.411 70.24 708.683 68.576 708.683 66.304C708.683 64.032 710.411 62.368 712.731 62.368ZM712.731 63.904C711.323 63.904 710.347 64.848 710.347 66.304C710.347 67.76 711.323 68.704 712.731 68.704C714.139 68.704 715.115 67.76 715.115 66.304C715.115 64.848 714.139 63.904 712.731 63.904ZM728.962 70L725.698 65.344H724.69V70H723.026V58.8H726.85C728.818 58.8 730.274 60.032 730.274 62.096C730.274 63.792 729.234 64.992 727.666 65.28L731.058 70H728.962ZM724.69 60.368V63.776H726.578C727.922 63.776 728.482 63.056 728.482 62.096C728.482 61.104 727.922 60.368 726.578 60.368H724.69ZM734.834 62.368C737.09 62.368 738.37 63.92 738.37 66.304V66.56H732.642C732.706 67.872 733.618 68.736 734.882 68.736C736.098 68.736 736.786 67.936 737.154 67.44L738.258 68.48C737.714 69.232 736.738 70.24 734.914 70.24C732.562 70.24 731.058 68.656 731.058 66.32C731.058 64.08 732.466 62.368 734.834 62.368ZM734.738 63.808C733.682 63.808 732.914 64.352 732.722 65.424H736.674C736.61 64.4 735.858 63.808 734.738 63.808ZM743.388 70.24C741.004 70.24 739.324 68.656 739.324 66.304C739.324 63.952 741.004 62.368 743.388 62.368C744.348 62.368 745.164 62.624 745.916 63.12L745.18 64.448C744.668 64.128 744.028 63.888 743.34 63.888C741.916 63.888 740.988 64.912 740.988 66.304C740.988 67.696 741.916 68.72 743.34 68.72C744.028 68.72 744.668 68.48 745.18 68.16L745.916 69.488C745.164 69.984 744.348 70.24 743.388 70.24ZM748.764 58.8V63.728H748.796C749.276 62.88 750.076 62.368 751.212 62.368C752.78 62.368 753.996 63.216 753.996 65.456V70H752.428V65.728C752.428 64.464 751.788 63.936 750.732 63.936C749.58 63.936 748.764 64.624 748.764 66.464V70H747.196V58.8H748.764ZM758.955 70.24C757.003 70.24 755.355 68.768 755.355 66.304C755.355 63.84 757.003 62.368 758.955 62.368C760.171 62.368 760.987 62.896 761.451 63.696H761.483V62.608H763.051V70H761.483V68.912H761.451C760.987 69.712 760.171 70.24 758.955 70.24ZM759.291 68.704C760.667 68.704 761.563 67.712 761.563 66.304C761.563 64.896 760.667 63.904 759.291 63.904C757.915 63.904 757.019 64.896 757.019 66.304C757.019 67.712 757.915 68.704 759.291 68.704ZM766.304 68.544H770.592V70H764.416V68.624L768.432 64.064H764.576V62.608H770.304V63.984L766.304 68.544ZM774.658 70.24C772.706 70.24 771.058 68.768 771.058 66.304C771.058 63.84 772.706 62.368 774.658 62.368C775.874 62.368 776.69 62.896 777.154 63.696H777.186V62.608H778.754V70H777.186V68.912H777.154C776.69 69.712 775.874 70.24 774.658 70.24ZM774.994 68.704C776.37 68.704 777.266 67.712 777.266 66.304C777.266 64.896 776.37 63.904 774.994 63.904C773.618 63.904 772.722 64.896 772.722 66.304C772.722 67.712 773.618 68.704 774.994 68.704ZM784.839 62.384V64.224H784.599C783.063 64.224 782.247 64.96 782.247 66.72V70H780.679V62.608H782.247V64.224H782.279C782.631 63.12 783.479 62.384 784.727 62.384H784.839Z" fill="#444444"/>
<path d="M521.306 70L518.042 65.344H517.034V70H515.37V58.8H519.194C521.162 58.8 522.618 60.032 522.618 62.096C522.618 63.792 521.578 64.992 520.01 65.28L523.402 70H521.306ZM517.034 60.368V63.776H518.922C520.266 63.776 520.826 63.056 520.826 62.096C520.826 61.104 520.266 60.368 518.922 60.368H517.034ZM527.178 62.368C529.434 62.368 530.714 63.92 530.714 66.304V66.56H524.986C525.05 67.872 525.962 68.736 527.226 68.736C528.442 68.736 529.13 67.936 529.498 67.44L530.602 68.48C530.058 69.232 529.082 70.24 527.258 70.24C524.906 70.24 523.402 68.656 523.402 66.32C523.402 64.08 524.81 62.368 527.178 62.368ZM527.082 63.808C526.026 63.808 525.258 64.352 525.066 65.424H529.018C528.954 64.4 528.202 63.808 527.082 63.808ZM534.436 70.24C533.38 70.24 532.276 69.952 531.428 69.456L532.132 68.064C532.82 68.464 533.604 68.768 534.484 68.768C535.236 68.768 535.636 68.544 535.636 68.08C535.636 67.776 535.476 67.552 534.852 67.248L533.508 66.592C532.388 66.064 531.956 65.312 531.956 64.464C531.956 63.104 532.964 62.368 534.58 62.368C535.428 62.368 536.356 62.592 537.14 62.944L536.5 64.304C535.94 64.064 535.252 63.824 534.532 63.824C533.844 63.824 533.62 64.048 533.62 64.384C533.62 64.736 533.828 64.96 534.468 65.264L535.844 65.92C536.804 66.368 537.316 67.008 537.316 68C537.316 69.504 536.164 70.24 534.436 70.24ZM541.225 70.24C539.769 70.24 538.521 69.36 538.521 67.088V62.608H540.121V66.928C540.121 68.144 540.729 68.72 541.673 68.72C542.761 68.72 543.529 68.016 543.529 66.144V62.608H545.097V70H543.529V68.88H543.497C543.129 69.616 542.425 70.24 541.225 70.24ZM547.023 70V62.608H548.591V63.76H548.623C549.055 62.768 549.903 62.368 550.847 62.368C551.903 62.368 552.655 62.832 553.087 63.872H553.119C553.567 62.816 554.51 62.368 555.439 62.368C556.831 62.368 557.967 63.232 557.967 65.424V70H556.399V65.504C556.399 64.48 555.887 63.936 554.943 63.936C553.983 63.936 553.279 64.56 553.279 66.16V70H551.711V65.504C551.711 64.48 551.199 63.936 550.239 63.936C549.295 63.936 548.591 64.56 548.591 66.176V70H547.023ZM563.1 62.368C565.356 62.368 566.636 63.92 566.636 66.304V66.56H560.908C560.972 67.872 561.884 68.736 563.148 68.736C564.364 68.736 565.052 67.936 565.42 67.44L566.524 68.48C565.98 69.232 565.004 70.24 563.18 70.24C560.828 70.24 559.324 68.656 559.324 66.32C559.324 64.08 560.732 62.368 563.1 62.368ZM563.004 63.808C561.948 63.808 561.18 64.352 560.988 65.424H564.94C564.876 64.4 564.124 63.808 563.004 63.808ZM572.085 62.368C573.669 62.368 574.869 63.216 574.869 65.456V70H573.301V65.728C573.301 64.464 572.661 63.936 571.605 63.936C570.453 63.936 569.637 64.624 569.637 66.464V70H568.069V62.608H569.637V63.728H569.669C570.149 62.88 570.949 62.368 572.085 62.368Z" fill="#444444"/>
<path d="M330.744 58.8C333.96 58.8 336.376 60.912 336.376 64.4C336.376 67.888 333.96 70 330.744 70H327.128V58.8H330.744ZM330.728 60.368H328.792V68.432H330.728C332.92 68.432 334.552 67.04 334.552 64.4C334.552 61.76 332.92 60.368 330.728 60.368ZM340.853 70.24C338.901 70.24 337.253 68.768 337.253 66.304C337.253 63.84 338.901 62.368 340.853 62.368C342.069 62.368 342.885 62.896 343.349 63.696H343.381V62.608H344.949V70H343.381V68.912H343.349C342.885 69.712 342.069 70.24 340.853 70.24ZM341.189 68.704C342.565 68.704 343.461 67.712 343.461 66.304C343.461 64.896 342.565 63.904 341.189 63.904C339.813 63.904 338.917 64.896 338.917 66.304C338.917 67.712 339.813 68.704 341.189 68.704ZM350.538 63.936H349.034V67.808C349.034 68.336 349.258 68.576 349.802 68.576H350.186V70.016H349.466C348.17 70.016 347.466 69.328 347.466 68.112V63.936H346.154V62.608H347.466V59.648H349.034V62.608H350.538V63.936ZM355.067 62.368C357.387 62.368 359.115 64.032 359.115 66.304C359.115 68.576 357.387 70.24 355.067 70.24C352.747 70.24 351.019 68.576 351.019 66.304C351.019 64.032 352.747 62.368 355.067 62.368ZM355.067 63.904C353.659 63.904 352.683 64.848 352.683 66.304C352.683 67.76 353.659 68.704 355.067 68.704C356.475 68.704 357.451 67.76 357.451 66.304C357.451 64.848 356.475 63.904 355.067 63.904ZM362.85 70.24C361.794 70.24 360.69 69.952 359.842 69.456L360.546 68.064C361.234 68.464 362.018 68.768 362.898 68.768C363.65 68.768 364.05 68.544 364.05 68.08C364.05 67.776 363.89 67.552 363.266 67.248L361.922 66.592C360.802 66.064 360.37 65.312 360.37 64.464C360.37 63.104 361.378 62.368 362.994 62.368C363.842 62.368 364.77 62.592 365.554 62.944L364.914 64.304C364.354 64.064 363.666 63.824 362.946 63.824C362.258 63.824 362.034 64.048 362.034 64.384C362.034 64.736 362.242 64.96 362.882 65.264L364.258 65.92C365.218 66.368 365.73 67.008 365.73 68C365.73 69.504 364.578 70.24 362.85 70.24ZM379.327 70L378.255 67.216H373.359L372.287 70H370.463L375.039 58.8H376.575L381.151 70H379.327ZM373.951 65.68H377.663L375.807 60.88L373.951 65.68ZM385.15 70.24C383.198 70.24 381.55 68.768 381.55 66.304C381.55 63.84 383.198 62.368 385.15 62.368C386.366 62.368 387.182 62.896 387.646 63.696H387.678V58.8H389.246V70H387.678V68.912H387.646C387.182 69.712 386.366 70.24 385.15 70.24ZM385.486 68.704C386.862 68.704 387.758 67.712 387.758 66.304C387.758 64.896 386.862 63.904 385.486 63.904C384.11 63.904 383.214 64.896 383.214 66.304C383.214 67.712 384.11 68.704 385.486 68.704ZM393.073 58.96V60.88H391.153V58.96H393.073ZM390.193 71.824H390.481C391.089 71.824 391.329 71.568 391.329 70.928V62.608H392.897V71.088C392.897 72.464 392.113 73.248 390.721 73.248H390.193V71.824ZM397.514 70.24C396.058 70.24 394.81 69.36 394.81 67.088V62.608H396.41V66.928C396.41 68.144 397.018 68.72 397.962 68.72C399.05 68.72 399.818 68.016 399.818 66.144V62.608H401.386V70H399.818V68.88H399.786C399.418 69.616 398.714 70.24 397.514 70.24ZM406.432 70.24C404.48 70.24 402.832 68.768 402.832 66.304C402.832 63.84 404.48 62.368 406.432 62.368C407.648 62.368 408.464 62.896 408.928 63.696H408.96V58.8H410.528V70H408.96V68.912H408.928C408.464 69.712 407.648 70.24 406.432 70.24ZM406.768 68.704C408.144 68.704 409.04 67.712 409.04 66.304C409.04 64.896 408.144 63.904 406.768 63.904C405.392 63.904 404.496 64.896 404.496 66.304C404.496 67.712 405.392 68.704 406.768 68.704ZM414.354 58.96V60.88H412.434V58.96H414.354ZM412.61 70V62.608H414.178V70H412.61ZM419.755 70.24C417.371 70.24 415.691 68.656 415.691 66.304C415.691 63.952 417.371 62.368 419.755 62.368C420.715 62.368 421.531 62.624 422.283 63.12L421.547 64.448C421.035 64.128 420.395 63.888 419.707 63.888C418.283 63.888 417.355 64.912 417.355 66.304C417.355 67.696 418.283 68.72 419.707 68.72C420.395 68.72 421.035 68.48 421.547 68.16L422.283 69.488C421.531 69.984 420.715 70.24 419.755 70.24ZM426.197 70.24C424.245 70.24 422.597 68.768 422.597 66.304C422.597 63.84 424.245 62.368 426.197 62.368C427.413 62.368 428.229 62.896 428.693 63.696H428.725V62.608H430.293V70H428.725V68.912H428.693C428.229 69.712 427.413 70.24 426.197 70.24ZM426.533 68.704C427.909 68.704 428.805 67.712 428.805 66.304C428.805 64.896 427.909 63.904 426.533 63.904C425.157 63.904 424.261 64.896 424.261 66.304C424.261 67.712 425.157 68.704 426.533 68.704ZM435.802 70.24C433.418 70.24 431.738 68.656 431.738 66.304C431.738 63.952 433.418 62.368 435.802 62.368C436.762 62.368 437.578 62.624 438.33 63.12L437.594 64.448C437.082 64.128 436.442 63.888 435.754 63.888C434.33 63.888 433.402 64.912 433.402 66.304C433.402 67.696 434.33 68.72 435.754 68.72C436.442 68.72 437.082 68.48 437.594 68.16L438.33 69.488C437.578 69.984 436.762 70.24 435.802 70.24ZM441.432 58.96V60.88H439.512V58.96H441.432ZM439.688 70V62.608H441.256V70H439.688ZM449.745 58.688L447.441 61.152H446.209L447.729 58.688H449.745ZM446.817 62.368C449.137 62.368 450.865 64.032 450.865 66.304C450.865 68.576 449.137 70.24 446.817 70.24C444.497 70.24 442.769 68.576 442.769 66.304C442.769 64.032 444.497 62.368 446.817 62.368ZM446.817 63.904C445.409 63.904 444.433 64.848 444.433 66.304C444.433 67.76 445.409 68.704 446.817 68.704C448.225 68.704 449.201 67.76 449.201 66.304C449.201 64.848 448.225 63.904 446.817 63.904ZM456.328 62.368C457.912 62.368 459.112 63.216 459.112 65.456V70H457.544V65.728C457.544 64.464 456.904 63.936 455.848 63.936C454.696 63.936 453.88 64.624 453.88 66.464V70H452.312V62.608H453.88V63.728H453.912C454.392 62.88 455.192 62.368 456.328 62.368Z" fill="#444444"/>
<path d="M158.22 58.8C161.436 58.8 163.852 60.912 163.852 64.4C163.852 67.888 161.436 70 158.22 70H154.604V58.8H158.22ZM158.204 60.368H156.268V68.432H158.204C160.396 68.432 162.028 67.04 162.028 64.4C162.028 61.76 160.396 60.368 158.204 60.368ZM168.778 62.368C171.098 62.368 172.826 64.032 172.826 66.304C172.826 68.576 171.098 70.24 168.778 70.24C166.458 70.24 164.73 68.576 164.73 66.304C164.73 64.032 166.458 62.368 168.778 62.368ZM168.778 63.904C167.37 63.904 166.394 64.848 166.394 66.304C166.394 67.76 167.37 68.704 168.778 68.704C170.186 68.704 171.162 67.76 171.162 66.304C171.162 64.848 170.186 63.904 168.778 63.904ZM177.857 70.24C175.473 70.24 173.793 68.656 173.793 66.304C173.793 63.952 175.473 62.368 177.857 62.368C178.817 62.368 179.633 62.624 180.385 63.12L179.649 64.448C179.137 64.128 178.497 63.888 177.809 63.888C176.385 63.888 175.457 64.912 175.457 66.304C175.457 67.696 176.385 68.72 177.809 68.72C178.497 68.72 179.137 68.48 179.649 68.16L180.385 69.488C179.633 69.984 178.817 70.24 177.857 70.24ZM184.287 70.24C182.831 70.24 181.583 69.36 181.583 67.088V62.608H183.183V66.928C183.183 68.144 183.791 68.72 184.735 68.72C185.823 68.72 186.591 68.016 186.591 66.144V62.608H188.159V70H186.591V68.88H186.559C186.191 69.616 185.487 70.24 184.287 70.24ZM190.085 70V62.608H191.653V63.76H191.685C192.117 62.768 192.965 62.368 193.909 62.368C194.965 62.368 195.717 62.832 196.149 63.872H196.181C196.629 62.816 197.573 62.368 198.501 62.368C199.893 62.368 201.029 63.232 201.029 65.424V70H199.461V65.504C199.461 64.48 198.949 63.936 198.005 63.936C197.045 63.936 196.341 64.56 196.341 66.16V70H194.773V65.504C194.773 64.48 194.261 63.936 193.301 63.936C192.357 63.936 191.653 64.56 191.653 66.176V70H190.085ZM206.162 62.368C208.418 62.368 209.698 63.92 209.698 66.304V66.56H203.97C204.034 67.872 204.946 68.736 206.21 68.736C207.426 68.736 208.114 67.936 208.482 67.44L209.586 68.48C209.042 69.232 208.066 70.24 206.242 70.24C203.89 70.24 202.386 68.656 202.386 66.32C202.386 64.08 203.794 62.368 206.162 62.368ZM206.066 63.808C205.01 63.808 204.242 64.352 204.05 65.424H208.002C207.938 64.4 207.186 63.808 206.066 63.808ZM215.148 62.368C216.732 62.368 217.932 63.216 217.932 65.456V70H216.364V65.728C216.364 64.464 215.724 63.936 214.668 63.936C213.516 63.936 212.7 64.624 212.7 66.464V70H211.132V62.608H212.7V63.728H212.732C213.212 62.88 214.012 62.368 215.148 62.368ZM223.03 63.936H221.526V67.808C221.526 68.336 221.75 68.576 222.294 68.576H222.678V70.016H221.958C220.662 70.016 219.958 69.328 219.958 68.112V63.936H218.646V62.608H219.958V59.648H221.526V62.608H223.03V63.936ZM227.559 62.368C229.879 62.368 231.607 64.032 231.607 66.304C231.607 68.576 229.879 70.24 227.559 70.24C225.239 70.24 223.511 68.576 223.511 66.304C223.511 64.032 225.239 62.368 227.559 62.368ZM227.559 63.904C226.151 63.904 225.175 64.848 225.175 66.304C225.175 67.76 226.151 68.704 227.559 68.704C228.967 68.704 229.943 67.76 229.943 66.304C229.943 64.848 228.967 63.904 227.559 63.904ZM235.342 70.24C234.286 70.24 233.182 69.952 232.334 69.456L233.038 68.064C233.726 68.464 234.51 68.768 235.39 68.768C236.142 68.768 236.542 68.544 236.542 68.08C236.542 67.776 236.382 67.552 235.758 67.248L234.414 66.592C233.294 66.064 232.862 65.312 232.862 64.464C232.862 63.104 233.87 62.368 235.486 62.368C236.334 62.368 237.262 62.592 238.046 62.944L237.406 64.304C236.846 64.064 236.158 63.824 235.438 63.824C234.75 63.824 234.526 64.048 234.526 64.384C234.526 64.736 234.734 64.96 235.374 65.264L236.75 65.92C237.71 66.368 238.222 67.008 238.222 68C238.222 69.504 237.07 70.24 235.342 70.24ZM253.991 58.8L256.711 70H254.935L253.079 62H253.047L250.535 68.288H249.287L246.775 62H246.743L244.887 70H243.111L245.831 58.8H247.191L249.895 65.68H249.927L252.631 58.8H253.991ZM259.613 58.8V70H257.917V58.8H259.613ZM265.678 58.8C267.902 58.8 269.15 60.256 269.15 62.192C269.15 64.112 267.902 65.584 265.678 65.584H263.518V70H261.854V58.8H265.678ZM265.454 64.016C266.606 64.016 267.358 63.392 267.358 62.192C267.358 60.992 266.606 60.368 265.454 60.368H263.518V64.016H265.454ZM278.079 58.8L274.575 65.504V70H272.895V65.52L269.391 58.8H271.327L273.711 63.744H273.759L276.143 58.8H278.079ZM288.398 58.8L291.118 70H289.342L287.486 62H287.454L284.942 68.288H283.694L281.182 62H281.15L279.294 70H277.518L280.238 58.8H281.598L284.302 65.68H284.334L287.038 58.8H288.398ZM293.987 68.432H298.803V70H292.323V58.8H298.723V60.368H293.987V63.024H298.355V64.592H293.987V68.432Z" fill="#323232"/>
<line x1="153" y1="78" x2="300" y2="78" stroke="#E0E83D" stroke-width="2"/>
<path d="M2.0035 58.8V70H0.3075V58.8H2.0035ZM8.101 62.368C9.685 62.368 10.885 63.216 10.885 65.456V70H9.317V65.728C9.317 64.464 8.677 63.936 7.621 63.936C6.469 63.936 5.653 64.624 5.653 66.464V70H4.085V62.608H5.653V63.728H5.685C6.165 62.88 6.965 62.368 8.101 62.368ZM15.8531 60.096C15.1011 60.096 14.5091 60.464 14.5091 61.536V62.608H15.9651V63.936H14.5091V70H12.9411V63.936H11.7731V62.608H12.9411V61.584C12.9411 59.76 13.9651 58.64 15.7891 58.64H16.0931V60.096H15.8531ZM20.3718 62.368C22.6918 62.368 24.4198 64.032 24.4198 66.304C24.4198 68.576 22.6918 70.24 20.3718 70.24C18.0518 70.24 16.3238 68.576 16.3238 66.304C16.3238 64.032 18.0518 62.368 20.3718 62.368ZM20.3718 63.904C18.9638 63.904 17.9878 64.848 17.9878 66.304C17.9878 67.76 18.9638 68.704 20.3718 68.704C21.7798 68.704 22.7558 67.76 22.7558 66.304C22.7558 64.848 21.7798 63.904 20.3718 63.904ZM30.0263 62.384V64.224H29.7863C28.2503 64.224 27.4343 64.96 27.4343 66.72V70H25.8663V62.608H27.4343V64.224H27.4663C27.8183 63.12 28.6663 62.384 29.9143 62.384H30.0263ZM31.1475 70V62.608H32.7155V63.76H32.7475C33.1795 62.768 34.0275 62.368 34.9715 62.368C36.0275 62.368 36.7795 62.832 37.2115 63.872H37.2435C37.6915 62.816 38.6355 62.368 39.5635 62.368C40.9555 62.368 42.0915 63.232 42.0915 65.424V70H40.5235V65.504C40.5235 64.48 40.0115 63.936 39.0675 63.936C38.1075 63.936 37.4035 64.56 37.4035 66.16V70H35.8355V65.504C35.8355 64.48 35.3235 63.936 34.3635 63.936C33.4195 63.936 32.7155 64.56 32.7155 66.176V70H31.1475ZM47.0488 70.24C45.0968 70.24 43.4488 68.768 43.4488 66.304C43.4488 63.84 45.0968 62.368 47.0488 62.368C48.2648 62.368 49.0808 62.896 49.5448 63.696H49.5768V62.608H51.1448V70H49.5768V68.912H49.5448C49.0808 69.712 48.2648 70.24 47.0488 70.24ZM47.3848 68.704C48.7608 68.704 49.6568 67.712 49.6568 66.304C49.6568 64.896 48.7608 63.904 47.3848 63.904C46.0088 63.904 45.1128 64.896 45.1128 66.304C45.1128 67.712 46.0088 68.704 47.3848 68.704ZM56.6534 70.24C54.2694 70.24 52.5894 68.656 52.5894 66.304C52.5894 63.952 54.2694 62.368 56.6534 62.368C57.6134 62.368 58.4294 62.624 59.1814 63.12L58.4454 64.448C57.9334 64.128 57.2934 63.888 56.6054 63.888C55.1814 63.888 54.2534 64.912 54.2534 66.304C54.2534 67.696 55.1814 68.72 56.6054 68.72C57.2934 68.72 57.9334 68.48 58.4454 68.16L59.1814 69.488C58.4294 69.984 57.6134 70.24 56.6534 70.24ZM62.284 58.96V60.88H60.364V58.96H62.284ZM60.54 70V62.608H62.108V70H60.54ZM70.5966 58.688L68.2926 61.152H67.0606L68.5806 58.688H70.5966ZM67.6686 62.368C69.9886 62.368 71.7166 64.032 71.7166 66.304C71.7166 68.576 69.9886 70.24 67.6686 70.24C65.3486 70.24 63.6206 68.576 63.6206 66.304C63.6206 64.032 65.3486 62.368 67.6686 62.368ZM67.6686 63.904C66.2606 63.904 65.2846 64.848 65.2846 66.304C65.2846 67.76 66.2606 68.704 67.6686 68.704C69.0766 68.704 70.0526 67.76 70.0526 66.304C70.0526 64.848 69.0766 63.904 67.6686 63.904ZM77.1791 62.368C78.7631 62.368 79.9631 63.216 79.9631 65.456V70H78.3951V65.728C78.3951 64.464 77.7551 63.936 76.6991 63.936C75.5471 63.936 74.7311 64.624 74.7311 66.464V70H73.1631V62.608H74.7311V63.728H74.7631C75.2431 62.88 76.0431 62.368 77.1791 62.368ZM96.2881 58.8L99.0081 70H97.2321L95.3761 62H95.3441L92.8321 68.288H91.5841L89.0721 62H89.0401L87.1841 70H85.4081L88.1281 58.8H89.4881L92.1921 65.68H92.2241L94.9281 58.8H96.2881ZM101.91 58.8V70H100.214V58.8H101.91ZM107.975 58.8C110.199 58.8 111.447 60.256 111.447 62.192C111.447 64.112 110.199 65.584 107.975 65.584H105.815V70H104.151V58.8H107.975ZM107.751 64.016C108.903 64.016 109.655 63.392 109.655 62.192C109.655 60.992 108.903 60.368 107.751 60.368H105.815V64.016H107.751ZM120.376 58.8L116.872 65.504V70H115.192V65.52L111.688 58.8H113.624L116.008 63.744H116.056L118.44 58.8H120.376ZM130.694 58.8L133.414 70H131.638L129.782 62H129.75L127.238 68.288H125.99L123.478 62H123.446L121.59 70H119.814L122.534 58.8H123.894L126.598 65.68H126.63L129.334 58.8H130.694ZM136.284 68.432H141.1V70H134.62V58.8H141.02V60.368H136.284V63.024H140.652V64.592H136.284V68.432Z" fill="#323232"/>
<defs>
<clipPath id="clip0_0_1">
<rect width="44" height="44" fill="white" transform="translate(41)"/>
</clipPath>
<clipPath id="clip1_0_1">
<rect width="44" height="44" fill="white" transform="translate(41)"/>
</clipPath>
<clipPath id="clip2_0_1">
<rect width="44" height="44" fill="white" transform="translate(524)"/>
</clipPath>
<clipPath id="clip3_0_1">
<rect width="44" height="44" fill="white" transform="translate(363)"/>
</clipPath>
<clipPath id="clip4_0_1">
<rect width="44" height="44" fill="white" transform="translate(685)"/>
</clipPath>
</defs>
</svg>
