<?xml version="1.0" encoding="utf-8"?>
<!-- Generator: Adobe Illustrator 25.4.1, SVG Export Plug-In . SVG Version: 6.00 Build 0)  -->
<svg version="1.1" id="Layer_1" xmlns="http://www.w3.org/2000/svg" xmlns:xlink="http://www.w3.org/1999/xlink" x="0px" y="0px"
	 viewBox="0 0 1550 404.5" style="enable-background:new 0 0 1550 404.5;" xml:space="preserve">
<style type="text/css">
	.st0{fill:#010101;}
	.st1{fill:#FFFFFF;}
	.st2{fill:#F26122;}
	.st3{fill:#E91E25;}
	.st4{fill:#F59D1E;}
</style>
<path class="st0" d="M432.4,425v1.1h2.1v5.2h1.1v-5.2h2.1V425H432.4z M444.4,425l-1.9,4.3l-1.9-4.3H439v6.3h1.2v-4.7l1.8,4.1h1.2
	l1.8-4.1v4.8h1.2V425H444.4z"/>
<g>
	<path class="st1" d="M998.4,187.7c-1.8-1.2-4-2.4-6.6-3.7c-2.6-1.3-5.5-2.4-8.6-3.4c-3.1-1-6.5-1.8-10-2.4
		c-3.5-0.6-7.2-0.9-10.9-0.9c-7.7,0-13.8,1.5-18.4,4.5c-4.6,3-6.8,7-6.8,12.1c0,4.5,1.9,7.8,5.7,10.1c3.8,2.2,9.1,3.8,16,4.7l13,1.7
		c6,0.8,11.3,2,16,3.7c4.7,1.7,8.6,3.8,11.9,6.4c3.2,2.6,5.7,5.7,7.4,9.3c1.7,3.6,2.6,7.7,2.6,12.3c0,5.3-1.2,10.2-3.5,14.5
		c-2.3,4.3-5.6,8-9.9,11.1c-4.3,3.1-9.5,5.4-15.6,7.1c-6.1,1.7-13,2.5-20.6,2.5c-3.5,0-7.2-0.2-11.1-0.7c-4-0.5-8-1.3-12.1-2.4
		c-4.1-1.1-8.2-2.6-12.3-4.4c-4.1-1.8-8-4.1-11.7-6.9l9-14.4c2.1,1.7,4.4,3.2,6.9,4.6c2.5,1.4,5.3,2.7,8.4,3.8
		c3.1,1.1,6.5,2,10.3,2.6c3.8,0.6,8,0.9,12.7,0.9c9.3,0,16.6-1.5,21.8-4.4c5.3-2.9,7.9-7.2,7.9-12.7c0-8.3-7.5-13.4-22.5-15.3
		l-13-1.5c-12.7-1.6-22-5.1-28.1-10.4c-6.1-5.4-9.1-12.4-9.1-20.9c0-5.3,1.1-10.2,3.2-14.4c2.1-4.3,5.1-7.9,9.1-10.9
		c3.9-2.9,8.7-5.2,14.2-6.8c5.5-1.6,11.7-2.4,18.6-2.4c8.9,0,17.2,1.1,24.9,3.2c7.7,2.2,14.3,5.1,19.8,8.9L998.4,187.7z"/>
	<path class="st1" d="M1111.2,180.4h-47.1V235c0,4.2,0.5,7.9,1.6,10.9c1.1,3,2.5,5.5,4.4,7.5c1.9,2,4.1,3.4,6.7,4.4
		c2.6,0.9,5.4,1.4,8.4,1.4c4.2,0,8.2-0.7,12.1-2.1c3.9-1.4,7.5-3.2,10.7-5.4l9.1,14.5c-4.3,3.1-9.3,5.8-14.9,7.9
		c-5.6,2.1-11.8,3.2-18.8,3.2c-6.1,0-11.5-0.8-16.3-2.5c-4.8-1.7-8.9-4.3-12.2-7.7c-3.3-3.5-5.9-7.8-7.7-13
		c-1.8-5.2-2.7-11.4-2.7-18.6v-55h-23.9v-17.6h23.9v-35.1h19.3v35.1h47.1V180.4z"/>
	<path class="st1" d="M1189,160.5c4,0,7.7,0.3,11,0.8c3.3,0.6,6.5,1.5,9.5,2.8l-4.7,19c-2.7-1.4-5.7-2.5-9.2-3.2
		c-3.5-0.7-6.8-1.1-10-1.1c-4.2,0-8.2,0.8-11.7,2.4c-3.6,1.6-6.7,3.8-9.3,6.8s-4.6,6.5-6,10.6c-1.4,4.1-2.1,8.8-2.1,14v62.4h-19.2
		v-112h19v14.7c3.9-5.5,8.7-9.7,14.3-12.7C1176.1,161.9,1182.3,160.5,1189,160.5z"/>
	<path class="st1" d="M1240.5,109.6c1.9,0,3.7,0.4,5.4,1.1c1.7,0.7,3.2,1.7,4.4,2.9c1.3,1.3,2.2,2.7,2.9,4.4
		c0.7,1.7,1.1,3.5,1.1,5.4c0,1.9-0.4,3.7-1.1,5.3c-0.7,1.7-1.7,3.1-2.9,4.3c-1.3,1.2-2.7,2.2-4.4,2.8c-1.7,0.7-3.5,1-5.4,1
		c-1.9,0-3.7-0.3-5.3-1c-1.7-0.7-3.1-1.6-4.3-2.8c-1.2-1.2-2.2-2.7-2.9-4.3c-0.7-1.7-1.1-3.4-1.1-5.3c0-2,0.4-3.8,1.1-5.4
		c0.7-1.7,1.7-3.1,2.9-4.4c1.2-1.3,2.7-2.2,4.3-2.9C1236.8,110,1238.6,109.6,1240.5,109.6z M1250.3,274.9h-19.2v-112h19.2V274.9z"/>
	<path class="st1" d="M1338.9,275h-22.6L1269,162.8h21l37.6,92.6l37.7-92.6h20.4L1338.9,275z"/>
	<path class="st1" d="M1451.9,160.5c7.6,0,14.7,1.4,21.1,4.2c6.4,2.8,12,6.8,16.6,11.9c4.6,5.1,8.3,11.2,10.9,18.3
		c2.6,7.1,4,15,4.1,23.5c0,1.3,0,2.5-0.1,3.7c-0.1,1.2-0.2,2.4-0.2,3.5h-88.1c0.7,5.8,2.2,10.9,4.4,15.2c2.2,4.3,5.1,7.9,8.4,10.9
		c3.4,2.9,7.2,5.1,11.6,6.5c4.3,1.4,8.9,2.1,13.7,2.1c6.6,0,12.8-1.2,18.6-3.5c5.8-2.4,11.1-5.6,15.9-9.8l10.3,13.2
		c-3.5,3.2-7,5.9-10.7,8.1c-3.7,2.2-7.5,4-11.3,5.2c-3.9,1.3-7.8,2.2-11.8,2.8c-4,0.5-8.1,0.8-12.1,0.8c-8.3,0-16-1.4-22.9-4.2
		c-7-2.8-13-6.8-18-11.9c-5-5.1-8.9-11.3-11.7-18.5c-2.8-7.2-4.2-15.1-4.2-23.8c0-8.6,1.4-16.5,4.2-23.6c2.8-7.2,6.7-13.3,11.6-18.5
		c5-5.1,10.8-9.1,17.6-12C1436.4,161.9,1443.8,160.5,1451.9,160.5z M1451.5,177.6c-5,0-9.4,0.8-13.4,2.4c-4,1.6-7.5,3.9-10.4,6.7
		c-2.9,2.9-5.4,6.3-7.3,10.3c-1.9,4-3.2,8.4-4,13.2h68.5c-0.6-5-1.9-9.4-3.7-13.4c-1.8-4-4.2-7.4-7.1-10.3c-2.9-2.8-6.2-5-10-6.5
		C1460.3,178.3,1456.1,177.6,1451.5,177.6z"/>
</g>
<g>
	<rect x="236.9" y="67.1" class="st2" width="152.1" height="273.4"/>
	<path class="st3" d="M246.6,203.8c0-55.5,26-104.9,66.4-136.7c-29.6-23.3-66.9-37.2-107.5-37.2c-96,0-173.9,77.8-173.9,173.9
		c0,96,77.8,173.9,173.9,173.9c40.6,0,77.9-13.9,107.5-37.2C272.6,308.6,246.6,259.2,246.6,203.8"/>
	<path class="st4" d="M594.3,203.8c0,96-77.8,173.9-173.9,173.9c-40.6,0-77.9-13.9-107.5-37.2c40.4-31.8,66.4-81.2,66.4-136.7
		c0-55.5-26-104.9-66.4-136.7c29.6-23.3,66.9-37.2,107.5-37.2C516.5,29.9,594.3,107.8,594.3,203.8"/>
</g>
</svg>
