<svg width="48" height="153" viewBox="0 0 48 153" fill="#444444" xmlns="http://www.w3.org/2000/svg">
<path fill-rule="evenodd" clip-rule="evenodd" d="M22.5 45C35.066 45 45 36.0521 45 22.5C45 8.90444 35.0236 0 22.5 0C9.97641 0 0 8.90444 0 22.5C0 36.0521 9.97641 45 22.5 45ZM22.5 33.2722C16.5142 33.2722 12.0566 29.1892 12.0566 22.5C12.0566 15.7674 16.5566 11.6844 22.5 11.6844C28.4434 11.6844 32.9009 15.7674 32.9009 22.5C32.9009 29.1892 28.4434 33.2722 22.5 33.2722Z" fill="#C7D317"/>
<path fill-rule="evenodd" clip-rule="evenodd" d="M22.4575 99C35.0236 99 44.9575 90.0521 44.9575 76.5H45C45 62.9479 35.0236 54 22.5 54C9.97641 54 0 62.9479 0 76.5C0 90.0521 9.97641 99 22.4575 99ZM22.5 87.2722C16.5142 87.2722 12.0566 83.2326 12.0566 76.5C12.0566 69.7674 16.5566 65.6844 22.5 65.6844C28.4434 65.6844 32.9009 69.7674 32.9009 76.5C32.9009 83.2326 28.4434 87.2722 22.5 87.2722Z" fill="#C7D317"/>
<path d="M24.6536 121.565L14.7283 152.139H1.92432L18.4664 109.335H30.8407L47.3828 152.139H34.5359L24.6536 121.565Z" fill="white"/>
</svg>
