<svg width="149" height="51" viewBox="0 0 149 51" fill="none"
  xmlns="http://www.w3.org/2000/svg">
  <path fill-rule="evenodd" clip-rule="evenodd" d="M20.5 15C24.6887 15 28 12.0174 28 7.5C28 2.96815 24.6745 0 20.5 0C16.3255 0 13 2.96815 13 7.5C13 12.0174 16.3255 15 20.5 15ZM20.5 11.0907C18.5047 11.0907 17.0189 9.72973 17.0189 7.5C17.0189 5.25579 18.5189 3.89479 20.5 3.89479C22.4811 3.89479 23.967 5.25579 23.967 7.5C23.967 9.72973 22.4811 11.0907 20.5 11.0907Z" fill="#C7D317"/>
  <path fill-rule="evenodd" clip-rule="evenodd" d="M52.3409 14.3887V10.8168V10.8024H46.8192V8.6766H51.4206V5.27826H46.8192V3.57187H52.0533V0H42.9224V14.3887H52.3409ZM41.4557 5.07581C41.4557 7.96801 39.7302 10.1372 35.6608 10.1372H33.9641V14.3742H30.0816V0.014461H35.6608C39.7446 0.014461 41.4557 2.18361 41.4557 5.07581ZM37.4582 5.07581C37.4582 3.99124 36.6818 3.45618 35.5602 3.45618H33.9784V6.69544H35.5602C36.6818 6.69544 37.4582 6.17485 37.4582 5.07581ZM68 14.3887H64.9803L58.2364 6.65206H58.1933V14.3742H54.3108V0H57.3305L64.0744 7.72217H64.1176V0H68V14.3742V14.3887ZM7.86551 18.0039C3.42453 18.0039 0.00345753 20.7199 2.61915e-06 25.4875C8.73155e-07 25.4851 0 25.4827 0 25.4803V25.4947C0 25.4923 8.73155e-07 25.4899 2.61915e-06 25.4875C0.00345753 30.2552 3.42453 32.9855 7.86551 33C10.1231 33 11.8774 32.277 13.1427 31.4093L11.1009 28.0543C10.2063 28.7487 9.11048 29.1296 7.98055 29.1389C5.88116 29.1389 4.08374 27.8808 4.08374 25.4947C4.08374 23.1087 5.88116 21.8361 7.98055 21.8361C9.11048 21.8454 10.2063 22.2264 11.1009 22.9207L13.1427 19.5947C11.8917 18.6981 10.1231 18.0039 7.86551 18.0039Z" fill="white"/>
  <path fill-rule="evenodd" clip-rule="evenodd" d="M20.4858 33C24.6745 33 27.9858 30.0174 27.9858 25.5H28C28 20.9826 24.6745 18 20.5 18C16.3255 18 13 20.9826 13 25.5C13 30.0174 16.3255 33 20.4858 33ZM20.5 29.0907C18.5047 29.0907 17.0189 27.7442 17.0189 25.5C17.0189 23.2558 18.5189 21.8948 20.5 21.8948C22.4811 21.8948 23.967 23.2558 23.967 25.5C23.967 27.7442 22.4811 29.0907 20.5 29.0907Z" fill="#C7D317"/>
  <path fill-rule="evenodd" clip-rule="evenodd" d="M149 25.6651C149 29.8421 146.594 32.8852 142.068 32.8852C137.428 32.8852 134.334 29.8421 134.334 25.4211C134.334 21.1866 137.184 18 142.269 18C144.56 18 146.336 18.6603 147.954 19.8373L145.606 23.0239C144.645 22.185 143.414 21.7212 142.14 21.7177C139.805 21.7177 138.402 23.2392 138.402 25.4498C138.402 27.5167 139.662 29.1818 142.24 29.1818C144.073 29.1818 144.947 28.3493 145.104 27.3732H141.595V24.1148H148.943C148.971 24.6746 149 25.2632 149 25.6651ZM86.1831 25.4426C86.1865 20.7102 89.5939 18.0144 94.0029 18.0144C96.2658 18.0144 98.0131 18.7033 99.2735 19.5933L97.2398 22.8947C96.3488 22.2055 95.2573 21.8275 94.1318 21.8182C92.0408 21.8182 90.2505 23.0813 90.2505 25.4498C90.2505 27.8182 92.0265 29.067 94.1175 29.067C95.2479 29.0608 96.3449 28.6826 97.2398 27.9904L99.2735 31.3206C98.0131 32.1818 96.2658 32.8995 94.0029 32.8995C89.5939 32.8852 86.1865 30.175 86.1831 25.4426ZM41.1542 32.5837H44.1619V32.5694V18.3158H40.2949V25.9809H40.2662L33.5348 18.3158H30.5272V32.5837H34.3942V24.9187H34.4371L41.1542 32.5837ZM53.0416 21.8612H56.6078V18.3158H45.6227V21.8612H49.1746V32.5694H53.0416V21.8612ZM65.5878 32.5837L61.9356 27.2727V32.5837H58.0687V18.3158H64.1413C67.908 18.3158 69.5121 20.5263 69.5121 22.9952C69.5121 24.89 68.5525 26.5837 66.4614 27.2727L70.4144 32.5837H65.5878ZM61.9356 24.7895V21.7321H63.6257C64.7858 21.7321 65.5019 22.177 65.5019 23.2392C65.5019 24.3014 64.8001 24.7895 63.6257 24.7895H61.9356ZM81.2992 29.9139H76.4297L75.5703 32.5837H71.3023L76.8164 18.3158H80.9411L86.4408 32.5837H82.1729L81.2992 29.9139ZM80.3206 26.8421L80.3253 26.8565L80.3396 26.8421H80.3206ZM80.3206 26.8421L78.8788 22.3923L77.4036 26.8421H80.3206ZM107.695 21.8612H111.232V18.3158H100.247V21.8612H103.828V32.5694H107.695V21.8612ZM116.575 32.5837H112.708V18.3158H116.575V32.5694V32.5837ZM129.651 32.5837H132.658L132.673 32.5694V18.3158H128.806V25.9809H128.763L122.046 18.3158H119.038V32.5837H122.905V24.9187H122.948L129.651 32.5837ZM8.52835 46.5072C12.5958 46.5072 14.3145 44.3541 14.3145 41.4833C14.3145 38.6124 12.5958 36.4306 8.54267 36.4306H3V50.6986H6.86698V46.5072H8.52835ZM10.3329 41.4833L10.3329 41.476L10.3329 41.4689V41.4833ZM10.3329 41.476C10.3295 40.39 9.55708 39.8612 8.44242 39.8612H6.85266V43.0766H8.42809C9.54278 43.0766 10.3295 42.5621 10.3329 41.476ZM17.9094 50.7129L21.2178 40.5215L24.5119 50.7129H28.7942L23.2802 36.445H19.1554L13.6414 50.7129H17.9094ZM37.2729 50.7129L33.6064 45.4019V50.7129H29.7395V36.445H35.8264C39.5931 36.445 41.1972 38.6699 41.1972 41.1244C41.1972 43.0191 40.2376 44.7129 38.1466 45.4163L42.0851 50.7129H37.2729ZM33.6064 42.9187V39.8612H35.2964C36.4709 39.8612 37.187 40.3062 37.187 41.3684C37.187 42.4306 36.4709 42.9187 35.2964 42.9187H33.6064ZM52.8984 39.9904H49.3465V50.6986H45.4795V39.9904H41.9276V36.445H52.8984V39.9904ZM64.9863 50.7129H67.9939V36.445H64.1269V44.11H64.084L57.3669 36.445H54.3592V50.7129H58.2262V43.0478H58.2692L64.9863 50.7129ZM79.8527 47.1675V50.7129H70.4573V36.445H79.5232V39.9904H74.3243V41.6842H78.9074V45.0431H74.3243V47.1531H79.8383L79.8527 47.1675ZM85.6818 45.4019L89.3483 50.7129H94.1605L90.2076 45.4163C92.3129 44.7129 93.2582 43.0191 93.2582 41.1244C93.2582 38.6699 91.6541 36.445 87.9017 36.445H81.8148V50.7129H85.6818V45.4019ZM85.6818 39.8612V42.9187H87.3718C88.5462 42.9187 89.2623 42.4306 89.2623 41.3684C89.2623 40.3062 88.5462 39.8612 87.3718 39.8612H85.6818ZM104.043 40.7799L105.704 37.3349H105.718C104.211 36.5586 102.544 36.1457 100.849 36.1292C97.2827 36.1292 95.5068 37.8947 95.5068 40.4498C95.4678 42.1746 96.4598 43.7562 98.0275 44.4689L101.135 46.0478C101.579 46.2775 101.823 46.4498 101.823 46.8086C101.823 47.2823 101.379 47.4402 100.62 47.4402C99.2449 47.4402 97.8556 46.8804 96.1799 45.689L94.404 49.3923C96.2393 50.4466 98.3181 51.0008 100.434 51C104.057 51 106.019 49.4211 106.019 46.4785C106.019 44.2392 104.873 43.2201 103.37 42.445L100.448 40.9378C99.8464 40.6364 99.7032 40.4354 99.7032 40.177C99.7032 39.8038 99.9466 39.6316 100.562 39.6316C101.479 39.6316 102.84 39.9904 104.043 40.7799ZM120.37 36.445V36.4593H116.517V41.6268H111.648V36.4306H107.781V50.6986H111.648V45.1579H116.503V50.7129H120.37V36.4593H120.384L120.37 36.445ZM122.848 50.7129H126.715V36.445H122.848V50.7129ZM140.521 41.4833C140.521 44.3541 138.817 46.5072 134.749 46.5072H133.059V50.6986H129.192V36.4306H134.764C138.831 36.4306 140.536 38.5981 140.536 41.4689L140.521 41.4833ZM134.649 39.8612C135.764 39.8612 136.536 40.39 136.54 41.4761C136.536 42.5621 135.764 43.0766 134.649 43.0766H133.074V39.8612H134.649ZM136.54 41.4761C136.54 41.4785 136.54 41.4809 136.54 41.4833V41.4689C136.54 41.4713 136.54 41.4737 136.54 41.4761Z" fill="white"/>
</svg>
